G04 #@! TF.GenerationSoftware,KiCad,Pcbnew,(5.0.0)*
G04 #@! TF.CreationDate,2020-09-19T09:09:07-07:00*
G04 #@! TF.ProjectId,GrenadeConversion3,4772656E616465436F6E76657273696F,rev?*
G04 #@! TF.SameCoordinates,Original*
G04 #@! TF.FileFunction,Copper,L2,Bot,Signal*
G04 #@! TF.FilePolarity,Positive*
%FSLAX46Y46*%
G04 Gerber Fmt 4.6, Leading zero omitted, Abs format (unit mm)*
G04 Created by KiCad (PCBNEW (5.0.0)) date 09/19/20 09:09:07*
%MOMM*%
%LPD*%
G01*
G04 APERTURE LIST*
G04 #@! TA.AperFunction,ComponentPad*
%ADD10O,1.000000X1.000000*%
G04 #@! TD*
G04 #@! TA.AperFunction,ComponentPad*
%ADD11R,1.000000X1.000000*%
G04 #@! TD*
G04 #@! TA.AperFunction,SMDPad,CuDef*
%ADD12R,1.200000X0.900000*%
G04 #@! TD*
G04 #@! TA.AperFunction,ComponentPad*
%ADD13O,0.950000X1.250000*%
G04 #@! TD*
G04 #@! TA.AperFunction,ComponentPad*
%ADD14R,0.950000X1.250000*%
G04 #@! TD*
G04 #@! TA.AperFunction,SMDPad,CuDef*
%ADD15R,0.500000X0.600000*%
G04 #@! TD*
G04 #@! TA.AperFunction,SMDPad,CuDef*
%ADD16R,0.600000X0.500000*%
G04 #@! TD*
G04 #@! TA.AperFunction,ViaPad*
%ADD17C,0.600000*%
G04 #@! TD*
G04 #@! TA.AperFunction,Conductor*
%ADD18C,0.254000*%
G04 #@! TD*
G04 #@! TA.AperFunction,Conductor*
%ADD19C,0.152400*%
G04 #@! TD*
G04 APERTURE END LIST*
D10*
G04 #@! TO.P,J1,14*
G04 #@! TO.N,/greenLED*
X109728000Y-98806000D03*
G04 #@! TO.P,J1,13*
G04 #@! TO.N,/Button_L*
X108458000Y-98806000D03*
G04 #@! TO.P,J1,12*
G04 #@! TO.N,/IR_MOD_Out*
X109728000Y-97536000D03*
G04 #@! TO.P,J1,11*
G04 #@! TO.N,/Power*
X108458000Y-97536000D03*
G04 #@! TO.P,J1,10*
G04 #@! TO.N,/IR_LED5*
X109728000Y-96266000D03*
G04 #@! TO.P,J1,9*
G04 #@! TO.N,/IR_LED4*
X108458000Y-96266000D03*
G04 #@! TO.P,J1,8*
G04 #@! TO.N,GND*
X109728000Y-94996000D03*
G04 #@! TO.P,J1,7*
G04 #@! TO.N,VCC*
X108458000Y-94996000D03*
G04 #@! TO.P,J1,6*
G04 #@! TO.N,/IR_LED6*
X109728000Y-93726000D03*
G04 #@! TO.P,J1,5*
G04 #@! TO.N,/IR_LED3*
X108458000Y-93726000D03*
G04 #@! TO.P,J1,4*
G04 #@! TO.N,/IR_LED7*
X109728000Y-92456000D03*
G04 #@! TO.P,J1,3*
G04 #@! TO.N,/IR_LED2*
X108458000Y-92456000D03*
G04 #@! TO.P,J1,2*
G04 #@! TO.N,/IR_LED8*
X109728000Y-91186000D03*
D11*
G04 #@! TO.P,J1,1*
G04 #@! TO.N,/IR_LED1*
X108458000Y-91186000D03*
G04 #@! TD*
D12*
G04 #@! TO.P,R1,2*
G04 #@! TO.N,VCC*
X112268000Y-102108000D03*
G04 #@! TO.P,R1,1*
G04 #@! TO.N,Net-(C6-Pad1)*
X110068000Y-102108000D03*
G04 #@! TD*
D13*
G04 #@! TO.P,J2,4*
G04 #@! TO.N,GND*
X114554000Y-104648000D03*
G04 #@! TO.P,J2,3*
G04 #@! TO.N,/SWCLK*
X115804000Y-104648000D03*
G04 #@! TO.P,J2,2*
G04 #@! TO.N,/SWDIO*
X117054000Y-104648000D03*
D14*
G04 #@! TO.P,J2,1*
G04 #@! TO.N,VCC*
X118304000Y-104648000D03*
G04 #@! TD*
G04 #@! TO.P,J3,1*
G04 #@! TO.N,/RX*
X109728000Y-104648000D03*
D13*
G04 #@! TO.P,J3,2*
G04 #@! TO.N,Net-(C6-Pad1)*
X108478000Y-104648000D03*
G04 #@! TO.P,J3,3*
G04 #@! TO.N,GND*
X107228000Y-104648000D03*
G04 #@! TO.P,J3,4*
G04 #@! TO.N,/NRST*
X105978000Y-104648000D03*
G04 #@! TD*
D15*
G04 #@! TO.P,C1,2*
G04 #@! TO.N,GND*
X119634000Y-93260000D03*
G04 #@! TO.P,C1,1*
G04 #@! TO.N,VCC*
X119634000Y-92160000D03*
G04 #@! TD*
D16*
G04 #@! TO.P,C2,1*
G04 #@! TO.N,VCC*
X119676000Y-98044000D03*
G04 #@! TO.P,C2,2*
G04 #@! TO.N,GND*
X118576000Y-98044000D03*
G04 #@! TD*
D15*
G04 #@! TO.P,C3,2*
G04 #@! TO.N,GND*
X113538000Y-96774000D03*
G04 #@! TO.P,C3,1*
G04 #@! TO.N,VCC*
X113538000Y-97874000D03*
G04 #@! TD*
G04 #@! TO.P,C4,1*
G04 #@! TO.N,VCC*
X121158000Y-93134000D03*
G04 #@! TO.P,C4,2*
G04 #@! TO.N,GND*
X121158000Y-94234000D03*
G04 #@! TD*
G04 #@! TO.P,C5,2*
G04 #@! TO.N,GND*
X106934000Y-96164400D03*
G04 #@! TO.P,C5,1*
G04 #@! TO.N,VCC*
X106934000Y-95064400D03*
G04 #@! TD*
D16*
G04 #@! TO.P,C6,1*
G04 #@! TO.N,Net-(C6-Pad1)*
X108204000Y-102108000D03*
G04 #@! TO.P,C6,2*
G04 #@! TO.N,GND*
X107104000Y-102108000D03*
G04 #@! TD*
G04 #@! TO.P,C7,2*
G04 #@! TO.N,GND*
X107146000Y-103124000D03*
G04 #@! TO.P,C7,1*
G04 #@! TO.N,Net-(C6-Pad1)*
X108246000Y-103124000D03*
G04 #@! TD*
D17*
G04 #@! TO.N,GND*
X118237000Y-98145600D03*
X113538000Y-96774000D03*
X119542560Y-94747080D03*
X119634000Y-93260000D03*
X115779400Y-92496640D03*
X105293160Y-90373200D03*
G04 #@! TO.N,VCC*
X120142000Y-91186000D03*
X120472200Y-99822000D03*
X113587977Y-97923977D03*
X115422680Y-89935400D03*
X112288320Y-103342440D03*
G04 #@! TO.N,/SWDIO*
X117896640Y-103195120D03*
G04 #@! TO.N,/NRST*
X116961920Y-98511360D03*
X117017800Y-101137720D03*
G04 #@! TD*
D18*
G04 #@! TO.N,VCC*
X107002400Y-94996000D02*
X106934000Y-95064400D01*
X108458000Y-94996000D02*
X107002400Y-94996000D01*
D19*
X120142000Y-91186000D02*
X120142000Y-91652000D01*
X120142000Y-91652000D02*
X119634000Y-92160000D01*
D18*
X120472200Y-98840200D02*
X119676000Y-98044000D01*
X120472200Y-99822000D02*
X120472200Y-98840200D01*
X113287978Y-98223976D02*
X113587977Y-97923977D01*
X112268000Y-99243954D02*
X113287978Y-98223976D01*
X112268000Y-102108000D02*
X112268000Y-99243954D01*
X112268000Y-102108000D02*
X112268000Y-103322120D01*
X112268000Y-103322120D02*
X112288320Y-103342440D01*
X115289680Y-90068400D02*
X115422680Y-89935400D01*
X108072678Y-90068400D02*
X115289680Y-90068400D01*
X106959400Y-91181678D02*
X108072678Y-90068400D01*
X106959400Y-94485000D02*
X106959400Y-91181678D01*
X106934000Y-95064400D02*
X106934000Y-94510400D01*
X106934000Y-94510400D02*
X106959400Y-94485000D01*
X119019320Y-90063320D02*
X120142000Y-91186000D01*
X115422680Y-89935400D02*
X115550600Y-90063320D01*
X115550600Y-90063320D02*
X119019320Y-90063320D01*
D19*
G04 #@! TO.N,Net-(C6-Pad1)*
X109315600Y-102108000D02*
X108204000Y-102108000D01*
X110068000Y-102108000D02*
X109315600Y-102108000D01*
X108204000Y-103082000D02*
X108246000Y-103124000D01*
X108204000Y-102108000D02*
X108204000Y-103082000D01*
X108246000Y-104416000D02*
X108478000Y-104648000D01*
X108246000Y-103124000D02*
X108246000Y-104416000D01*
G04 #@! TO.N,/SWDIO*
X117054000Y-104037760D02*
X117054000Y-104648000D01*
X117896640Y-103195120D02*
X117054000Y-104037760D01*
G04 #@! TO.N,/NRST*
X116961920Y-101081840D02*
X117017800Y-101137720D01*
X116961920Y-98511360D02*
X116961920Y-101081840D01*
G04 #@! TD*
D18*
G04 #@! TO.N,GND*
G36*
X106473651Y-90589797D02*
X106410030Y-90632307D01*
X106367519Y-90695929D01*
X106367518Y-90695930D01*
X106241613Y-90884361D01*
X106182473Y-91181678D01*
X106197401Y-91256726D01*
X106197400Y-94307657D01*
X106185498Y-94367491D01*
X106085843Y-94516635D01*
X106036560Y-94764400D01*
X106036560Y-95364400D01*
X106085843Y-95612165D01*
X106095299Y-95626316D01*
X106049000Y-95738091D01*
X106049000Y-95878650D01*
X106207750Y-96037400D01*
X106809000Y-96037400D01*
X106809000Y-96017400D01*
X107059000Y-96017400D01*
X107059000Y-96037400D01*
X107081000Y-96037400D01*
X107081000Y-96291400D01*
X107059000Y-96291400D01*
X107059000Y-96940650D01*
X107217750Y-97099400D01*
X107310310Y-97099400D01*
X107413133Y-97056809D01*
X107388854Y-97093145D01*
X107300765Y-97536000D01*
X107388854Y-97978855D01*
X107517241Y-98171000D01*
X107388854Y-98363145D01*
X107300765Y-98806000D01*
X107388854Y-99248855D01*
X107639711Y-99624289D01*
X108015145Y-99875146D01*
X108346217Y-99941000D01*
X108569783Y-99941000D01*
X108900855Y-99875146D01*
X109093000Y-99746759D01*
X109285145Y-99875146D01*
X109616217Y-99941000D01*
X109839783Y-99941000D01*
X110170855Y-99875146D01*
X110546289Y-99624289D01*
X110797146Y-99248855D01*
X110885235Y-98806000D01*
X110797146Y-98363145D01*
X110668759Y-98171000D01*
X110797146Y-97978855D01*
X110885235Y-97536000D01*
X110797146Y-97093145D01*
X110668759Y-96901000D01*
X110797146Y-96708855D01*
X110868985Y-96347691D01*
X112653000Y-96347691D01*
X112653000Y-96488250D01*
X112811750Y-96647000D01*
X113413000Y-96647000D01*
X113413000Y-95997750D01*
X113663000Y-95997750D01*
X113663000Y-96647000D01*
X114264250Y-96647000D01*
X114423000Y-96488250D01*
X114423000Y-96347691D01*
X114326327Y-96114302D01*
X114147699Y-95935673D01*
X113914310Y-95839000D01*
X113821750Y-95839000D01*
X113663000Y-95997750D01*
X113413000Y-95997750D01*
X113254250Y-95839000D01*
X113161690Y-95839000D01*
X112928301Y-95935673D01*
X112749673Y-96114302D01*
X112653000Y-96347691D01*
X110868985Y-96347691D01*
X110885235Y-96266000D01*
X110797146Y-95823145D01*
X110660801Y-95619090D01*
X110715127Y-95556209D01*
X110822119Y-95297874D01*
X110695954Y-95123000D01*
X109855000Y-95123000D01*
X109855000Y-95134027D01*
X109839783Y-95131000D01*
X109616217Y-95131000D01*
X109601000Y-95134027D01*
X109601000Y-95123000D01*
X109589973Y-95123000D01*
X109615235Y-94996000D01*
X109589973Y-94869000D01*
X109601000Y-94869000D01*
X109601000Y-94857973D01*
X109616217Y-94861000D01*
X109839783Y-94861000D01*
X109855000Y-94857973D01*
X109855000Y-94869000D01*
X110695954Y-94869000D01*
X110822119Y-94694126D01*
X110749900Y-94519750D01*
X120273000Y-94519750D01*
X120273000Y-94660309D01*
X120369673Y-94893698D01*
X120548301Y-95072327D01*
X120781690Y-95169000D01*
X120874250Y-95169000D01*
X121033000Y-95010250D01*
X121033000Y-94361000D01*
X120431750Y-94361000D01*
X120273000Y-94519750D01*
X110749900Y-94519750D01*
X110715127Y-94435791D01*
X110660801Y-94372910D01*
X110797146Y-94168855D01*
X110885235Y-93726000D01*
X110849382Y-93545750D01*
X118749000Y-93545750D01*
X118749000Y-93686309D01*
X118845673Y-93919698D01*
X119024301Y-94098327D01*
X119257690Y-94195000D01*
X119350250Y-94195000D01*
X119509000Y-94036250D01*
X119509000Y-93387000D01*
X118907750Y-93387000D01*
X118749000Y-93545750D01*
X110849382Y-93545750D01*
X110797146Y-93283145D01*
X110668759Y-93091000D01*
X110797146Y-92898855D01*
X110885235Y-92456000D01*
X110797146Y-92013145D01*
X110668759Y-91821000D01*
X110797146Y-91628855D01*
X110885235Y-91186000D01*
X110814502Y-90830400D01*
X115140128Y-90830400D01*
X115236697Y-90870400D01*
X115608663Y-90870400D01*
X115717496Y-90825320D01*
X118703690Y-90825320D01*
X119139553Y-91261183D01*
X119136235Y-91261843D01*
X118926191Y-91402191D01*
X118785843Y-91612235D01*
X118736560Y-91860000D01*
X118736560Y-92460000D01*
X118785843Y-92707765D01*
X118795299Y-92721916D01*
X118749000Y-92833691D01*
X118749000Y-92974250D01*
X118907750Y-93133000D01*
X119509000Y-93133000D01*
X119509000Y-93113000D01*
X119759000Y-93113000D01*
X119759000Y-93133000D01*
X119781000Y-93133000D01*
X119781000Y-93387000D01*
X119759000Y-93387000D01*
X119759000Y-94036250D01*
X119917750Y-94195000D01*
X120010310Y-94195000D01*
X120243699Y-94098327D01*
X120333388Y-94008638D01*
X120431750Y-94107000D01*
X121033000Y-94107000D01*
X121033000Y-94087000D01*
X121283000Y-94087000D01*
X121283000Y-94107000D01*
X121305000Y-94107000D01*
X121305000Y-94361000D01*
X121283000Y-94361000D01*
X121283000Y-95010250D01*
X121441750Y-95169000D01*
X121464000Y-95169000D01*
X121464001Y-106732000D01*
X104342000Y-106732000D01*
X104342000Y-104388676D01*
X104868000Y-104388676D01*
X104868000Y-104907323D01*
X104932403Y-105231099D01*
X105177735Y-105598265D01*
X105544900Y-105843597D01*
X105978000Y-105929746D01*
X106411099Y-105843597D01*
X106610602Y-105710294D01*
X106930062Y-105867268D01*
X107101000Y-105740734D01*
X107101000Y-104775000D01*
X107088000Y-104775000D01*
X107088000Y-104521000D01*
X107101000Y-104521000D01*
X107101000Y-103555266D01*
X107019000Y-103494567D01*
X107019000Y-103249000D01*
X106369750Y-103249000D01*
X106211000Y-103407750D01*
X106211000Y-103412601D01*
X105978000Y-103366254D01*
X105544901Y-103452403D01*
X105177736Y-103697735D01*
X104932403Y-104064900D01*
X104868000Y-104388676D01*
X104342000Y-104388676D01*
X104342000Y-102391750D01*
X106169000Y-102391750D01*
X106169000Y-102484310D01*
X106244548Y-102666698D01*
X106211000Y-102747690D01*
X106211000Y-102840250D01*
X106369750Y-102999000D01*
X107019000Y-102999000D01*
X107019000Y-102397750D01*
X106977000Y-102355750D01*
X106977000Y-102233000D01*
X106327750Y-102233000D01*
X106169000Y-102391750D01*
X104342000Y-102391750D01*
X104342000Y-101731690D01*
X106169000Y-101731690D01*
X106169000Y-101824250D01*
X106327750Y-101983000D01*
X106977000Y-101983000D01*
X106977000Y-101381750D01*
X107231000Y-101381750D01*
X107231000Y-101983000D01*
X107251000Y-101983000D01*
X107251000Y-102233000D01*
X107231000Y-102233000D01*
X107231000Y-102834250D01*
X107273000Y-102876250D01*
X107273000Y-102999000D01*
X107293000Y-102999000D01*
X107293000Y-103249000D01*
X107273000Y-103249000D01*
X107273000Y-103850250D01*
X107355000Y-103932250D01*
X107355000Y-104521000D01*
X107368000Y-104521000D01*
X107368000Y-104775000D01*
X107355000Y-104775000D01*
X107355000Y-105740734D01*
X107525938Y-105867268D01*
X107845398Y-105710294D01*
X108044900Y-105843597D01*
X108478000Y-105929746D01*
X108911099Y-105843597D01*
X108937544Y-105825927D01*
X109005235Y-105871157D01*
X109253000Y-105920440D01*
X110203000Y-105920440D01*
X110450765Y-105871157D01*
X110660809Y-105730809D01*
X110801157Y-105520765D01*
X110850440Y-105273000D01*
X110850440Y-104949131D01*
X113452771Y-104949131D01*
X113594432Y-105359049D01*
X113882179Y-105683552D01*
X114256062Y-105867268D01*
X114427000Y-105740734D01*
X114427000Y-104775000D01*
X113601437Y-104775000D01*
X113452771Y-104949131D01*
X110850440Y-104949131D01*
X110850440Y-104346869D01*
X113452771Y-104346869D01*
X113601437Y-104521000D01*
X114427000Y-104521000D01*
X114427000Y-103555266D01*
X114681000Y-103555266D01*
X114681000Y-104521000D01*
X114694000Y-104521000D01*
X114694000Y-104775000D01*
X114681000Y-104775000D01*
X114681000Y-105740734D01*
X114851938Y-105867268D01*
X115171398Y-105710294D01*
X115370900Y-105843597D01*
X115804000Y-105929746D01*
X116237099Y-105843597D01*
X116429000Y-105715373D01*
X116620900Y-105843597D01*
X117054000Y-105929746D01*
X117487099Y-105843597D01*
X117513544Y-105825927D01*
X117581235Y-105871157D01*
X117829000Y-105920440D01*
X118779000Y-105920440D01*
X119026765Y-105871157D01*
X119236809Y-105730809D01*
X119377157Y-105520765D01*
X119426440Y-105273000D01*
X119426440Y-104023000D01*
X119377157Y-103775235D01*
X119236809Y-103565191D01*
X119026765Y-103424843D01*
X118829754Y-103385656D01*
X118831640Y-103381103D01*
X118831640Y-103009137D01*
X118689295Y-102665485D01*
X118426275Y-102402465D01*
X118082623Y-102260120D01*
X117710657Y-102260120D01*
X117367005Y-102402465D01*
X117103985Y-102665485D01*
X116961640Y-103009137D01*
X116961640Y-103124332D01*
X116636714Y-103449258D01*
X116620901Y-103452403D01*
X116429001Y-103580627D01*
X116237100Y-103452403D01*
X115804000Y-103366254D01*
X115370901Y-103452403D01*
X115171399Y-103585706D01*
X114851938Y-103428732D01*
X114681000Y-103555266D01*
X114427000Y-103555266D01*
X114256062Y-103428732D01*
X113882179Y-103612448D01*
X113594432Y-103936951D01*
X113452771Y-104346869D01*
X110850440Y-104346869D01*
X110850440Y-104023000D01*
X110801157Y-103775235D01*
X110660809Y-103565191D01*
X110450765Y-103424843D01*
X110203000Y-103375560D01*
X109253000Y-103375560D01*
X109190663Y-103387959D01*
X109193440Y-103374000D01*
X109193440Y-103138253D01*
X109220235Y-103156157D01*
X109468000Y-103205440D01*
X110668000Y-103205440D01*
X110915765Y-103156157D01*
X111125809Y-103015809D01*
X111168000Y-102952666D01*
X111210191Y-103015809D01*
X111367923Y-103121203D01*
X111353320Y-103156457D01*
X111353320Y-103528423D01*
X111495665Y-103872075D01*
X111758685Y-104135095D01*
X112102337Y-104277440D01*
X112474303Y-104277440D01*
X112817955Y-104135095D01*
X113080975Y-103872075D01*
X113223320Y-103528423D01*
X113223320Y-103156457D01*
X113199908Y-103099934D01*
X113325809Y-103015809D01*
X113466157Y-102805765D01*
X113515440Y-102558000D01*
X113515440Y-101658000D01*
X113466157Y-101410235D01*
X113325809Y-101200191D01*
X113115765Y-101059843D01*
X113030000Y-101042783D01*
X113030000Y-99559584D01*
X113730608Y-98858977D01*
X113773960Y-98858977D01*
X113935334Y-98792134D01*
X114035765Y-98772157D01*
X114245809Y-98631809D01*
X114333152Y-98501092D01*
X114380632Y-98453612D01*
X114433748Y-98325377D01*
X116026920Y-98325377D01*
X116026920Y-98697343D01*
X116169265Y-99040995D01*
X116250720Y-99122450D01*
X116250721Y-100582509D01*
X116225145Y-100608085D01*
X116082800Y-100951737D01*
X116082800Y-101323703D01*
X116225145Y-101667355D01*
X116488165Y-101930375D01*
X116831817Y-102072720D01*
X117203783Y-102072720D01*
X117547435Y-101930375D01*
X117810455Y-101667355D01*
X117952800Y-101323703D01*
X117952800Y-100951737D01*
X117810455Y-100608085D01*
X117673120Y-100470750D01*
X117673120Y-99122450D01*
X117754575Y-99040995D01*
X117863061Y-98779086D01*
X117916302Y-98832327D01*
X118149691Y-98929000D01*
X118290250Y-98929000D01*
X118449000Y-98770250D01*
X118449000Y-98169000D01*
X118429000Y-98169000D01*
X118429000Y-97919000D01*
X118449000Y-97919000D01*
X118449000Y-97317750D01*
X118703000Y-97317750D01*
X118703000Y-97919000D01*
X118723000Y-97919000D01*
X118723000Y-98169000D01*
X118703000Y-98169000D01*
X118703000Y-98770250D01*
X118861750Y-98929000D01*
X119002309Y-98929000D01*
X119114084Y-98882701D01*
X119128235Y-98892157D01*
X119376000Y-98941440D01*
X119495810Y-98941440D01*
X119710201Y-99155831D01*
X119710201Y-99261709D01*
X119679545Y-99292365D01*
X119537200Y-99636017D01*
X119537200Y-100007983D01*
X119679545Y-100351635D01*
X119942565Y-100614655D01*
X120286217Y-100757000D01*
X120658183Y-100757000D01*
X121001835Y-100614655D01*
X121264855Y-100351635D01*
X121407200Y-100007983D01*
X121407200Y-99636017D01*
X121264855Y-99292365D01*
X121234200Y-99261710D01*
X121234200Y-98915247D01*
X121249128Y-98840200D01*
X121231546Y-98751809D01*
X121189988Y-98542883D01*
X121021571Y-98290829D01*
X120957949Y-98248318D01*
X120623440Y-97913809D01*
X120623440Y-97794000D01*
X120574157Y-97546235D01*
X120433809Y-97336191D01*
X120223765Y-97195843D01*
X119976000Y-97146560D01*
X119376000Y-97146560D01*
X119128235Y-97195843D01*
X119114084Y-97205299D01*
X119002309Y-97159000D01*
X118861750Y-97159000D01*
X118703000Y-97317750D01*
X118449000Y-97317750D01*
X118290250Y-97159000D01*
X118149691Y-97159000D01*
X117916302Y-97255673D01*
X117737673Y-97434301D01*
X117641000Y-97667690D01*
X117641000Y-97760250D01*
X117797748Y-97916998D01*
X117689848Y-97916998D01*
X117491555Y-97718705D01*
X117147903Y-97576360D01*
X116775937Y-97576360D01*
X116432285Y-97718705D01*
X116169265Y-97981725D01*
X116026920Y-98325377D01*
X114433748Y-98325377D01*
X114522977Y-98109960D01*
X114522977Y-97737994D01*
X114417324Y-97482925D01*
X114386157Y-97326235D01*
X114376701Y-97312084D01*
X114423000Y-97200309D01*
X114423000Y-97059750D01*
X114264250Y-96901000D01*
X113663000Y-96901000D01*
X113663000Y-96921000D01*
X113413000Y-96921000D01*
X113413000Y-96901000D01*
X112811750Y-96901000D01*
X112653000Y-97059750D01*
X112653000Y-97200309D01*
X112699299Y-97312084D01*
X112689843Y-97326235D01*
X112640560Y-97574000D01*
X112640560Y-97793763D01*
X111782251Y-98652073D01*
X111718630Y-98694583D01*
X111676119Y-98758205D01*
X111676118Y-98758206D01*
X111550213Y-98946637D01*
X111491073Y-99243954D01*
X111506001Y-99319002D01*
X111506000Y-101042783D01*
X111420235Y-101059843D01*
X111210191Y-101200191D01*
X111168000Y-101263334D01*
X111125809Y-101200191D01*
X110915765Y-101059843D01*
X110668000Y-101010560D01*
X109468000Y-101010560D01*
X109220235Y-101059843D01*
X109010191Y-101200191D01*
X108902869Y-101360808D01*
X108751765Y-101259843D01*
X108504000Y-101210560D01*
X107904000Y-101210560D01*
X107656235Y-101259843D01*
X107642084Y-101269299D01*
X107530309Y-101223000D01*
X107389750Y-101223000D01*
X107231000Y-101381750D01*
X106977000Y-101381750D01*
X106818250Y-101223000D01*
X106677691Y-101223000D01*
X106444302Y-101319673D01*
X106265673Y-101498301D01*
X106169000Y-101731690D01*
X104342000Y-101731690D01*
X104342000Y-96450150D01*
X106049000Y-96450150D01*
X106049000Y-96590709D01*
X106145673Y-96824098D01*
X106324301Y-97002727D01*
X106557690Y-97099400D01*
X106650250Y-97099400D01*
X106809000Y-96940650D01*
X106809000Y-96291400D01*
X106207750Y-96291400D01*
X106049000Y-96450150D01*
X104342000Y-96450150D01*
X104342000Y-90118000D01*
X106945448Y-90118000D01*
X106473651Y-90589797D01*
X106473651Y-90589797D01*
G37*
X106473651Y-90589797D02*
X106410030Y-90632307D01*
X106367519Y-90695929D01*
X106367518Y-90695930D01*
X106241613Y-90884361D01*
X106182473Y-91181678D01*
X106197401Y-91256726D01*
X106197400Y-94307657D01*
X106185498Y-94367491D01*
X106085843Y-94516635D01*
X106036560Y-94764400D01*
X106036560Y-95364400D01*
X106085843Y-95612165D01*
X106095299Y-95626316D01*
X106049000Y-95738091D01*
X106049000Y-95878650D01*
X106207750Y-96037400D01*
X106809000Y-96037400D01*
X106809000Y-96017400D01*
X107059000Y-96017400D01*
X107059000Y-96037400D01*
X107081000Y-96037400D01*
X107081000Y-96291400D01*
X107059000Y-96291400D01*
X107059000Y-96940650D01*
X107217750Y-97099400D01*
X107310310Y-97099400D01*
X107413133Y-97056809D01*
X107388854Y-97093145D01*
X107300765Y-97536000D01*
X107388854Y-97978855D01*
X107517241Y-98171000D01*
X107388854Y-98363145D01*
X107300765Y-98806000D01*
X107388854Y-99248855D01*
X107639711Y-99624289D01*
X108015145Y-99875146D01*
X108346217Y-99941000D01*
X108569783Y-99941000D01*
X108900855Y-99875146D01*
X109093000Y-99746759D01*
X109285145Y-99875146D01*
X109616217Y-99941000D01*
X109839783Y-99941000D01*
X110170855Y-99875146D01*
X110546289Y-99624289D01*
X110797146Y-99248855D01*
X110885235Y-98806000D01*
X110797146Y-98363145D01*
X110668759Y-98171000D01*
X110797146Y-97978855D01*
X110885235Y-97536000D01*
X110797146Y-97093145D01*
X110668759Y-96901000D01*
X110797146Y-96708855D01*
X110868985Y-96347691D01*
X112653000Y-96347691D01*
X112653000Y-96488250D01*
X112811750Y-96647000D01*
X113413000Y-96647000D01*
X113413000Y-95997750D01*
X113663000Y-95997750D01*
X113663000Y-96647000D01*
X114264250Y-96647000D01*
X114423000Y-96488250D01*
X114423000Y-96347691D01*
X114326327Y-96114302D01*
X114147699Y-95935673D01*
X113914310Y-95839000D01*
X113821750Y-95839000D01*
X113663000Y-95997750D01*
X113413000Y-95997750D01*
X113254250Y-95839000D01*
X113161690Y-95839000D01*
X112928301Y-95935673D01*
X112749673Y-96114302D01*
X112653000Y-96347691D01*
X110868985Y-96347691D01*
X110885235Y-96266000D01*
X110797146Y-95823145D01*
X110660801Y-95619090D01*
X110715127Y-95556209D01*
X110822119Y-95297874D01*
X110695954Y-95123000D01*
X109855000Y-95123000D01*
X109855000Y-95134027D01*
X109839783Y-95131000D01*
X109616217Y-95131000D01*
X109601000Y-95134027D01*
X109601000Y-95123000D01*
X109589973Y-95123000D01*
X109615235Y-94996000D01*
X109589973Y-94869000D01*
X109601000Y-94869000D01*
X109601000Y-94857973D01*
X109616217Y-94861000D01*
X109839783Y-94861000D01*
X109855000Y-94857973D01*
X109855000Y-94869000D01*
X110695954Y-94869000D01*
X110822119Y-94694126D01*
X110749900Y-94519750D01*
X120273000Y-94519750D01*
X120273000Y-94660309D01*
X120369673Y-94893698D01*
X120548301Y-95072327D01*
X120781690Y-95169000D01*
X120874250Y-95169000D01*
X121033000Y-95010250D01*
X121033000Y-94361000D01*
X120431750Y-94361000D01*
X120273000Y-94519750D01*
X110749900Y-94519750D01*
X110715127Y-94435791D01*
X110660801Y-94372910D01*
X110797146Y-94168855D01*
X110885235Y-93726000D01*
X110849382Y-93545750D01*
X118749000Y-93545750D01*
X118749000Y-93686309D01*
X118845673Y-93919698D01*
X119024301Y-94098327D01*
X119257690Y-94195000D01*
X119350250Y-94195000D01*
X119509000Y-94036250D01*
X119509000Y-93387000D01*
X118907750Y-93387000D01*
X118749000Y-93545750D01*
X110849382Y-93545750D01*
X110797146Y-93283145D01*
X110668759Y-93091000D01*
X110797146Y-92898855D01*
X110885235Y-92456000D01*
X110797146Y-92013145D01*
X110668759Y-91821000D01*
X110797146Y-91628855D01*
X110885235Y-91186000D01*
X110814502Y-90830400D01*
X115140128Y-90830400D01*
X115236697Y-90870400D01*
X115608663Y-90870400D01*
X115717496Y-90825320D01*
X118703690Y-90825320D01*
X119139553Y-91261183D01*
X119136235Y-91261843D01*
X118926191Y-91402191D01*
X118785843Y-91612235D01*
X118736560Y-91860000D01*
X118736560Y-92460000D01*
X118785843Y-92707765D01*
X118795299Y-92721916D01*
X118749000Y-92833691D01*
X118749000Y-92974250D01*
X118907750Y-93133000D01*
X119509000Y-93133000D01*
X119509000Y-93113000D01*
X119759000Y-93113000D01*
X119759000Y-93133000D01*
X119781000Y-93133000D01*
X119781000Y-93387000D01*
X119759000Y-93387000D01*
X119759000Y-94036250D01*
X119917750Y-94195000D01*
X120010310Y-94195000D01*
X120243699Y-94098327D01*
X120333388Y-94008638D01*
X120431750Y-94107000D01*
X121033000Y-94107000D01*
X121033000Y-94087000D01*
X121283000Y-94087000D01*
X121283000Y-94107000D01*
X121305000Y-94107000D01*
X121305000Y-94361000D01*
X121283000Y-94361000D01*
X121283000Y-95010250D01*
X121441750Y-95169000D01*
X121464000Y-95169000D01*
X121464001Y-106732000D01*
X104342000Y-106732000D01*
X104342000Y-104388676D01*
X104868000Y-104388676D01*
X104868000Y-104907323D01*
X104932403Y-105231099D01*
X105177735Y-105598265D01*
X105544900Y-105843597D01*
X105978000Y-105929746D01*
X106411099Y-105843597D01*
X106610602Y-105710294D01*
X106930062Y-105867268D01*
X107101000Y-105740734D01*
X107101000Y-104775000D01*
X107088000Y-104775000D01*
X107088000Y-104521000D01*
X107101000Y-104521000D01*
X107101000Y-103555266D01*
X107019000Y-103494567D01*
X107019000Y-103249000D01*
X106369750Y-103249000D01*
X106211000Y-103407750D01*
X106211000Y-103412601D01*
X105978000Y-103366254D01*
X105544901Y-103452403D01*
X105177736Y-103697735D01*
X104932403Y-104064900D01*
X104868000Y-104388676D01*
X104342000Y-104388676D01*
X104342000Y-102391750D01*
X106169000Y-102391750D01*
X106169000Y-102484310D01*
X106244548Y-102666698D01*
X106211000Y-102747690D01*
X106211000Y-102840250D01*
X106369750Y-102999000D01*
X107019000Y-102999000D01*
X107019000Y-102397750D01*
X106977000Y-102355750D01*
X106977000Y-102233000D01*
X106327750Y-102233000D01*
X106169000Y-102391750D01*
X104342000Y-102391750D01*
X104342000Y-101731690D01*
X106169000Y-101731690D01*
X106169000Y-101824250D01*
X106327750Y-101983000D01*
X106977000Y-101983000D01*
X106977000Y-101381750D01*
X107231000Y-101381750D01*
X107231000Y-101983000D01*
X107251000Y-101983000D01*
X107251000Y-102233000D01*
X107231000Y-102233000D01*
X107231000Y-102834250D01*
X107273000Y-102876250D01*
X107273000Y-102999000D01*
X107293000Y-102999000D01*
X107293000Y-103249000D01*
X107273000Y-103249000D01*
X107273000Y-103850250D01*
X107355000Y-103932250D01*
X107355000Y-104521000D01*
X107368000Y-104521000D01*
X107368000Y-104775000D01*
X107355000Y-104775000D01*
X107355000Y-105740734D01*
X107525938Y-105867268D01*
X107845398Y-105710294D01*
X108044900Y-105843597D01*
X108478000Y-105929746D01*
X108911099Y-105843597D01*
X108937544Y-105825927D01*
X109005235Y-105871157D01*
X109253000Y-105920440D01*
X110203000Y-105920440D01*
X110450765Y-105871157D01*
X110660809Y-105730809D01*
X110801157Y-105520765D01*
X110850440Y-105273000D01*
X110850440Y-104949131D01*
X113452771Y-104949131D01*
X113594432Y-105359049D01*
X113882179Y-105683552D01*
X114256062Y-105867268D01*
X114427000Y-105740734D01*
X114427000Y-104775000D01*
X113601437Y-104775000D01*
X113452771Y-104949131D01*
X110850440Y-104949131D01*
X110850440Y-104346869D01*
X113452771Y-104346869D01*
X113601437Y-104521000D01*
X114427000Y-104521000D01*
X114427000Y-103555266D01*
X114681000Y-103555266D01*
X114681000Y-104521000D01*
X114694000Y-104521000D01*
X114694000Y-104775000D01*
X114681000Y-104775000D01*
X114681000Y-105740734D01*
X114851938Y-105867268D01*
X115171398Y-105710294D01*
X115370900Y-105843597D01*
X115804000Y-105929746D01*
X116237099Y-105843597D01*
X116429000Y-105715373D01*
X116620900Y-105843597D01*
X117054000Y-105929746D01*
X117487099Y-105843597D01*
X117513544Y-105825927D01*
X117581235Y-105871157D01*
X117829000Y-105920440D01*
X118779000Y-105920440D01*
X119026765Y-105871157D01*
X119236809Y-105730809D01*
X119377157Y-105520765D01*
X119426440Y-105273000D01*
X119426440Y-104023000D01*
X119377157Y-103775235D01*
X119236809Y-103565191D01*
X119026765Y-103424843D01*
X118829754Y-103385656D01*
X118831640Y-103381103D01*
X118831640Y-103009137D01*
X118689295Y-102665485D01*
X118426275Y-102402465D01*
X118082623Y-102260120D01*
X117710657Y-102260120D01*
X117367005Y-102402465D01*
X117103985Y-102665485D01*
X116961640Y-103009137D01*
X116961640Y-103124332D01*
X116636714Y-103449258D01*
X116620901Y-103452403D01*
X116429001Y-103580627D01*
X116237100Y-103452403D01*
X115804000Y-103366254D01*
X115370901Y-103452403D01*
X115171399Y-103585706D01*
X114851938Y-103428732D01*
X114681000Y-103555266D01*
X114427000Y-103555266D01*
X114256062Y-103428732D01*
X113882179Y-103612448D01*
X113594432Y-103936951D01*
X113452771Y-104346869D01*
X110850440Y-104346869D01*
X110850440Y-104023000D01*
X110801157Y-103775235D01*
X110660809Y-103565191D01*
X110450765Y-103424843D01*
X110203000Y-103375560D01*
X109253000Y-103375560D01*
X109190663Y-103387959D01*
X109193440Y-103374000D01*
X109193440Y-103138253D01*
X109220235Y-103156157D01*
X109468000Y-103205440D01*
X110668000Y-103205440D01*
X110915765Y-103156157D01*
X111125809Y-103015809D01*
X111168000Y-102952666D01*
X111210191Y-103015809D01*
X111367923Y-103121203D01*
X111353320Y-103156457D01*
X111353320Y-103528423D01*
X111495665Y-103872075D01*
X111758685Y-104135095D01*
X112102337Y-104277440D01*
X112474303Y-104277440D01*
X112817955Y-104135095D01*
X113080975Y-103872075D01*
X113223320Y-103528423D01*
X113223320Y-103156457D01*
X113199908Y-103099934D01*
X113325809Y-103015809D01*
X113466157Y-102805765D01*
X113515440Y-102558000D01*
X113515440Y-101658000D01*
X113466157Y-101410235D01*
X113325809Y-101200191D01*
X113115765Y-101059843D01*
X113030000Y-101042783D01*
X113030000Y-99559584D01*
X113730608Y-98858977D01*
X113773960Y-98858977D01*
X113935334Y-98792134D01*
X114035765Y-98772157D01*
X114245809Y-98631809D01*
X114333152Y-98501092D01*
X114380632Y-98453612D01*
X114433748Y-98325377D01*
X116026920Y-98325377D01*
X116026920Y-98697343D01*
X116169265Y-99040995D01*
X116250720Y-99122450D01*
X116250721Y-100582509D01*
X116225145Y-100608085D01*
X116082800Y-100951737D01*
X116082800Y-101323703D01*
X116225145Y-101667355D01*
X116488165Y-101930375D01*
X116831817Y-102072720D01*
X117203783Y-102072720D01*
X117547435Y-101930375D01*
X117810455Y-101667355D01*
X117952800Y-101323703D01*
X117952800Y-100951737D01*
X117810455Y-100608085D01*
X117673120Y-100470750D01*
X117673120Y-99122450D01*
X117754575Y-99040995D01*
X117863061Y-98779086D01*
X117916302Y-98832327D01*
X118149691Y-98929000D01*
X118290250Y-98929000D01*
X118449000Y-98770250D01*
X118449000Y-98169000D01*
X118429000Y-98169000D01*
X118429000Y-97919000D01*
X118449000Y-97919000D01*
X118449000Y-97317750D01*
X118703000Y-97317750D01*
X118703000Y-97919000D01*
X118723000Y-97919000D01*
X118723000Y-98169000D01*
X118703000Y-98169000D01*
X118703000Y-98770250D01*
X118861750Y-98929000D01*
X119002309Y-98929000D01*
X119114084Y-98882701D01*
X119128235Y-98892157D01*
X119376000Y-98941440D01*
X119495810Y-98941440D01*
X119710201Y-99155831D01*
X119710201Y-99261709D01*
X119679545Y-99292365D01*
X119537200Y-99636017D01*
X119537200Y-100007983D01*
X119679545Y-100351635D01*
X119942565Y-100614655D01*
X120286217Y-100757000D01*
X120658183Y-100757000D01*
X121001835Y-100614655D01*
X121264855Y-100351635D01*
X121407200Y-100007983D01*
X121407200Y-99636017D01*
X121264855Y-99292365D01*
X121234200Y-99261710D01*
X121234200Y-98915247D01*
X121249128Y-98840200D01*
X121231546Y-98751809D01*
X121189988Y-98542883D01*
X121021571Y-98290829D01*
X120957949Y-98248318D01*
X120623440Y-97913809D01*
X120623440Y-97794000D01*
X120574157Y-97546235D01*
X120433809Y-97336191D01*
X120223765Y-97195843D01*
X119976000Y-97146560D01*
X119376000Y-97146560D01*
X119128235Y-97195843D01*
X119114084Y-97205299D01*
X119002309Y-97159000D01*
X118861750Y-97159000D01*
X118703000Y-97317750D01*
X118449000Y-97317750D01*
X118290250Y-97159000D01*
X118149691Y-97159000D01*
X117916302Y-97255673D01*
X117737673Y-97434301D01*
X117641000Y-97667690D01*
X117641000Y-97760250D01*
X117797748Y-97916998D01*
X117689848Y-97916998D01*
X117491555Y-97718705D01*
X117147903Y-97576360D01*
X116775937Y-97576360D01*
X116432285Y-97718705D01*
X116169265Y-97981725D01*
X116026920Y-98325377D01*
X114433748Y-98325377D01*
X114522977Y-98109960D01*
X114522977Y-97737994D01*
X114417324Y-97482925D01*
X114386157Y-97326235D01*
X114376701Y-97312084D01*
X114423000Y-97200309D01*
X114423000Y-97059750D01*
X114264250Y-96901000D01*
X113663000Y-96901000D01*
X113663000Y-96921000D01*
X113413000Y-96921000D01*
X113413000Y-96901000D01*
X112811750Y-96901000D01*
X112653000Y-97059750D01*
X112653000Y-97200309D01*
X112699299Y-97312084D01*
X112689843Y-97326235D01*
X112640560Y-97574000D01*
X112640560Y-97793763D01*
X111782251Y-98652073D01*
X111718630Y-98694583D01*
X111676119Y-98758205D01*
X111676118Y-98758206D01*
X111550213Y-98946637D01*
X111491073Y-99243954D01*
X111506001Y-99319002D01*
X111506000Y-101042783D01*
X111420235Y-101059843D01*
X111210191Y-101200191D01*
X111168000Y-101263334D01*
X111125809Y-101200191D01*
X110915765Y-101059843D01*
X110668000Y-101010560D01*
X109468000Y-101010560D01*
X109220235Y-101059843D01*
X109010191Y-101200191D01*
X108902869Y-101360808D01*
X108751765Y-101259843D01*
X108504000Y-101210560D01*
X107904000Y-101210560D01*
X107656235Y-101259843D01*
X107642084Y-101269299D01*
X107530309Y-101223000D01*
X107389750Y-101223000D01*
X107231000Y-101381750D01*
X106977000Y-101381750D01*
X106818250Y-101223000D01*
X106677691Y-101223000D01*
X106444302Y-101319673D01*
X106265673Y-101498301D01*
X106169000Y-101731690D01*
X104342000Y-101731690D01*
X104342000Y-96450150D01*
X106049000Y-96450150D01*
X106049000Y-96590709D01*
X106145673Y-96824098D01*
X106324301Y-97002727D01*
X106557690Y-97099400D01*
X106650250Y-97099400D01*
X106809000Y-96940650D01*
X106809000Y-96291400D01*
X106207750Y-96291400D01*
X106049000Y-96450150D01*
X104342000Y-96450150D01*
X104342000Y-90118000D01*
X106945448Y-90118000D01*
X106473651Y-90589797D01*
G04 #@! TD*
M02*
