G04 #@! TF.GenerationSoftware,KiCad,Pcbnew,(5.0.0)*
G04 #@! TF.CreationDate,2020-09-19T09:09:07-07:00*
G04 #@! TF.ProjectId,GrenadeConversion3,4772656E616465436F6E76657273696F,rev?*
G04 #@! TF.SameCoordinates,Original*
G04 #@! TF.FileFunction,Soldermask,Top*
G04 #@! TF.FilePolarity,Negative*
%FSLAX46Y46*%
G04 Gerber Fmt 4.6, Leading zero omitted, Abs format (unit mm)*
G04 Created by KiCad (PCBNEW (5.0.0)) date 09/19/20 09:09:07*
%MOMM*%
%LPD*%
G01*
G04 APERTURE LIST*
%ADD10R,1.700000X0.650000*%
%ADD11R,0.650000X1.700000*%
%ADD12O,1.400000X1.400000*%
%ADD13R,1.400000X1.400000*%
%ADD14R,1.650000X1.900000*%
%ADD15O,1.350000X1.650000*%
%ADD16R,1.350000X1.650000*%
%ADD17R,1.700000X1.900000*%
G04 APERTURE END LIST*
D10*
G04 #@! TO.C,U1*
X120908000Y-92754000D03*
X120908000Y-93254000D03*
X120908000Y-93754000D03*
X120908000Y-94254000D03*
X120908000Y-94754000D03*
X120908000Y-95254000D03*
X120908000Y-95754000D03*
X120908000Y-96254000D03*
X120908000Y-96754000D03*
X120908000Y-97254000D03*
X120908000Y-97754000D03*
X120908000Y-98254000D03*
D11*
X119308000Y-99854000D03*
X118808000Y-99854000D03*
X118308000Y-99854000D03*
X117808000Y-99854000D03*
X117308000Y-99854000D03*
X116808000Y-99854000D03*
X116308000Y-99854000D03*
X115808000Y-99854000D03*
X115308000Y-99854000D03*
X114808000Y-99854000D03*
X114308000Y-99854000D03*
X113808000Y-99854000D03*
D10*
X112208000Y-98254000D03*
X112208000Y-97754000D03*
X112208000Y-97254000D03*
X112208000Y-96754000D03*
X112208000Y-96254000D03*
X112208000Y-95754000D03*
X112208000Y-95254000D03*
X112208000Y-94754000D03*
X112208000Y-94254000D03*
X112208000Y-93754000D03*
X112208000Y-93254000D03*
X112208000Y-92754000D03*
D11*
X113808000Y-91154000D03*
X114308000Y-91154000D03*
X114808000Y-91154000D03*
X115308000Y-91154000D03*
X115808000Y-91154000D03*
X116308000Y-91154000D03*
X116808000Y-91154000D03*
X117308000Y-91154000D03*
X117808000Y-91154000D03*
X118308000Y-91154000D03*
X118808000Y-91154000D03*
X119308000Y-91154000D03*
G04 #@! TD*
D12*
G04 #@! TO.C,J1*
X109728000Y-98806000D03*
X108458000Y-98806000D03*
X109728000Y-97536000D03*
X108458000Y-97536000D03*
X109728000Y-96266000D03*
X108458000Y-96266000D03*
X109728000Y-94996000D03*
X108458000Y-94996000D03*
X109728000Y-93726000D03*
X108458000Y-93726000D03*
X109728000Y-92456000D03*
X108458000Y-92456000D03*
X109728000Y-91186000D03*
D13*
X108458000Y-91186000D03*
G04 #@! TD*
D14*
G04 #@! TO.C,D1*
X105283000Y-94386400D03*
X105283000Y-91886400D03*
G04 #@! TD*
D15*
G04 #@! TO.C,J2*
X114554000Y-104648000D03*
X115804000Y-104648000D03*
X117054000Y-104648000D03*
D16*
X118304000Y-104648000D03*
G04 #@! TD*
G04 #@! TO.C,J3*
X109728000Y-104648000D03*
D15*
X108478000Y-104648000D03*
X107228000Y-104648000D03*
X105978000Y-104648000D03*
G04 #@! TD*
D17*
G04 #@! TO.C,R2*
X105343960Y-96672400D03*
X105343960Y-99372400D03*
G04 #@! TD*
M02*
