M48
;DRILL file {KiCad (5.0.0)} date 09/19/20 09:09:11
;FORMAT={-:-/ absolute / inch / decimal}
FMAT,2
INCH,TZ
T1C0.0157
T2C0.0236
T3C0.0256
%
G90
G05
M72
T1
X4.1454Y-3.558
X4.4208Y-4.0686
X4.47Y-3.81
X4.472Y-3.8553
X4.5442Y-3.5408
X4.5582Y-3.6416
X4.6048Y-3.8784
X4.607Y-3.9818
X4.6416Y-4.0628
X4.655Y-3.864
X4.7064Y-3.7302
X4.71Y-3.6717
X4.73Y-3.59
X4.743Y-3.93
T2
X4.51Y-4.12
X4.5592Y-4.12
X4.6084Y-4.12
X4.6576Y-4.12
X4.1724Y-4.12
X4.2216Y-4.12
X4.2708Y-4.12
X4.32Y-4.12
T3
X4.27Y-3.59
X4.27Y-3.64
X4.27Y-3.69
X4.27Y-3.74
X4.27Y-3.79
X4.27Y-3.84
X4.27Y-3.89
X4.32Y-3.59
X4.32Y-3.64
X4.32Y-3.69
X4.32Y-3.74
X4.32Y-3.79
X4.32Y-3.84
X4.32Y-3.89
T0
M30
