G04 #@! TF.GenerationSoftware,KiCad,Pcbnew,(5.1.2)-2*
G04 #@! TF.CreationDate,2020-12-19T11:55:12-08:00*
G04 #@! TF.ProjectId,GrenadeConversion3,4772656e-6164-4654-936f-6e7665727369,rev?*
G04 #@! TF.SameCoordinates,Original*
G04 #@! TF.FileFunction,Legend,Top*
G04 #@! TF.FilePolarity,Positive*
%FSLAX46Y46*%
G04 Gerber Fmt 4.6, Leading zero omitted, Abs format (unit mm)*
G04 Created by KiCad (PCBNEW (5.1.2)-2) date 2020-12-19 11:55:12*
%MOMM*%
%LPD*%
G04 APERTURE LIST*
%ADD10C,0.127000*%
%ADD11C,0.200000*%
%ADD12C,0.150000*%
%ADD13C,0.120000*%
G04 APERTURE END LIST*
D10*
X105029000Y-92964000D02*
X105537000Y-92964000D01*
X105537000Y-93345000D02*
X105283000Y-92964000D01*
X105029000Y-93345000D02*
X105537000Y-93345000D01*
X105283000Y-92964000D02*
X105029000Y-93345000D01*
X120634760Y-106671049D02*
X120634760Y-106792001D01*
X120513807Y-106743620D02*
X120634760Y-106792001D01*
X120755712Y-106743620D01*
X120562188Y-106888763D02*
X120634760Y-106792001D01*
X120707331Y-106888763D01*
X112029240Y-106696449D02*
X112029240Y-106817401D01*
X111908287Y-106769020D02*
X112029240Y-106817401D01*
X112150192Y-106769020D01*
X111956668Y-106914163D02*
X112029240Y-106817401D01*
X112101811Y-106914163D01*
X120142000Y-89891809D02*
X120142000Y-90012761D01*
X120021047Y-89964380D02*
X120142000Y-90012761D01*
X120262952Y-89964380D01*
X120069428Y-90109523D02*
X120142000Y-90012761D01*
X120214571Y-90109523D01*
X107574080Y-100164900D02*
X107785746Y-100757566D01*
X107997413Y-100164900D01*
X108251413Y-99868566D02*
X108801746Y-99868566D01*
X108505413Y-100207233D01*
X108632413Y-100207233D01*
X108717080Y-100249566D01*
X108759413Y-100291900D01*
X108801746Y-100376566D01*
X108801746Y-100588233D01*
X108759413Y-100672900D01*
X108717080Y-100715233D01*
X108632413Y-100757566D01*
X108378413Y-100757566D01*
X108293746Y-100715233D01*
X108251413Y-100672900D01*
X109182746Y-100672900D02*
X109225080Y-100715233D01*
X109182746Y-100757566D01*
X109140413Y-100715233D01*
X109182746Y-100672900D01*
X109182746Y-100757566D01*
X110071746Y-100757566D02*
X109563746Y-100757566D01*
X109817746Y-100757566D02*
X109817746Y-99868566D01*
X109733080Y-99995566D01*
X109648413Y-100080233D01*
X109563746Y-100122566D01*
D11*
X110445920Y-101467611D02*
X110588777Y-101515230D01*
X110636396Y-101562849D01*
X110684015Y-101658087D01*
X110684015Y-101800944D01*
X110636396Y-101896182D01*
X110588777Y-101943801D01*
X110493539Y-101991420D01*
X110112586Y-101991420D01*
X110112586Y-100991420D01*
X110445920Y-100991420D01*
X110541158Y-101039040D01*
X110588777Y-101086659D01*
X110636396Y-101181897D01*
X110636396Y-101277135D01*
X110588777Y-101372373D01*
X110541158Y-101419992D01*
X110445920Y-101467611D01*
X110112586Y-101467611D01*
X111017348Y-101324754D02*
X111255443Y-101991420D01*
X111493539Y-101324754D02*
X111255443Y-101991420D01*
X111160205Y-102229516D01*
X111112586Y-102277135D01*
X111017348Y-102324754D01*
X111874491Y-101896182D02*
X111922110Y-101943801D01*
X111874491Y-101991420D01*
X111826872Y-101943801D01*
X111874491Y-101896182D01*
X111874491Y-101991420D01*
X111874491Y-101372373D02*
X111922110Y-101419992D01*
X111874491Y-101467611D01*
X111826872Y-101419992D01*
X111874491Y-101372373D01*
X111874491Y-101467611D01*
X113064967Y-101705706D02*
X113541158Y-101705706D01*
X112969729Y-101991420D02*
X113303062Y-100991420D01*
X113636396Y-101991420D01*
X114112586Y-101991420D02*
X114017348Y-101943801D01*
X113969729Y-101848563D01*
X113969729Y-100991420D01*
X114636396Y-101991420D02*
X114541158Y-101943801D01*
X114493539Y-101848563D01*
X114493539Y-100991420D01*
X115398300Y-101943801D02*
X115303062Y-101991420D01*
X115112586Y-101991420D01*
X115017348Y-101943801D01*
X114969729Y-101848563D01*
X114969729Y-101467611D01*
X115017348Y-101372373D01*
X115112586Y-101324754D01*
X115303062Y-101324754D01*
X115398300Y-101372373D01*
X115445920Y-101467611D01*
X115445920Y-101562849D01*
X114969729Y-101658087D01*
X115874491Y-101324754D02*
X115874491Y-101991420D01*
X115874491Y-101419992D02*
X115922110Y-101372373D01*
X116017348Y-101324754D01*
X116160205Y-101324754D01*
X116255443Y-101372373D01*
X116303062Y-101467611D01*
X116303062Y-101991420D01*
X117541158Y-101991420D02*
X117541158Y-100991420D01*
X117922110Y-100991420D01*
X118017348Y-101039040D01*
X118064967Y-101086659D01*
X118112586Y-101181897D01*
X118112586Y-101324754D01*
X118064967Y-101419992D01*
X118017348Y-101467611D01*
X117922110Y-101515230D01*
X117541158Y-101515230D01*
X118922110Y-101943801D02*
X118826872Y-101991420D01*
X118636396Y-101991420D01*
X118541158Y-101943801D01*
X118493539Y-101848563D01*
X118493539Y-101467611D01*
X118541158Y-101372373D01*
X118636396Y-101324754D01*
X118826872Y-101324754D01*
X118922110Y-101372373D01*
X118969729Y-101467611D01*
X118969729Y-101562849D01*
X118493539Y-101658087D01*
X119255443Y-101324754D02*
X119636396Y-101324754D01*
X119398300Y-100991420D02*
X119398300Y-101848563D01*
X119445920Y-101943801D01*
X119541158Y-101991420D01*
X119636396Y-101991420D01*
X120350681Y-101943801D02*
X120255443Y-101991420D01*
X120064967Y-101991420D01*
X119969729Y-101943801D01*
X119922110Y-101848563D01*
X119922110Y-101467611D01*
X119969729Y-101372373D01*
X120064967Y-101324754D01*
X120255443Y-101324754D01*
X120350681Y-101372373D01*
X120398300Y-101467611D01*
X120398300Y-101562849D01*
X119922110Y-101658087D01*
X120826872Y-101991420D02*
X120826872Y-101324754D01*
X120826872Y-101515230D02*
X120874491Y-101419992D01*
X120922110Y-101372373D01*
X121017348Y-101324754D01*
X121112586Y-101324754D01*
X121398300Y-101943801D02*
X121493539Y-101991420D01*
X121684015Y-101991420D01*
X121779253Y-101943801D01*
X121826872Y-101848563D01*
X121826872Y-101800944D01*
X121779253Y-101705706D01*
X121684015Y-101658087D01*
X121541158Y-101658087D01*
X121445920Y-101610468D01*
X121398300Y-101515230D01*
X121398300Y-101467611D01*
X121445920Y-101372373D01*
X121541158Y-101324754D01*
X121684015Y-101324754D01*
X121779253Y-101372373D01*
D12*
X119733000Y-91879000D02*
X119733000Y-90504000D01*
X120183000Y-99129000D02*
X120183000Y-98604000D01*
X112933000Y-99129000D02*
X112933000Y-98604000D01*
X112933000Y-91879000D02*
X112933000Y-92404000D01*
X120183000Y-91879000D02*
X120183000Y-92404000D01*
X112933000Y-91879000D02*
X113458000Y-91879000D01*
X112933000Y-99129000D02*
X113458000Y-99129000D01*
X120183000Y-99129000D02*
X119658000Y-99129000D01*
X120183000Y-91879000D02*
X119733000Y-91879000D01*
D13*
X107328000Y-90426000D02*
X108458000Y-90426000D01*
X107328000Y-91186000D02*
X107328000Y-90426000D01*
X110035530Y-90491000D02*
X110858000Y-90491000D01*
X109218000Y-90491000D02*
X109420470Y-90491000D01*
X109218000Y-90622529D02*
X109218000Y-90491000D01*
X109218000Y-91892529D02*
X109218000Y-91749471D01*
X109021471Y-91946000D02*
X109164529Y-91946000D01*
X107328000Y-91946000D02*
X107894529Y-91946000D01*
X110858000Y-90491000D02*
X110858000Y-99501000D01*
X107328000Y-91946000D02*
X107328000Y-99501000D01*
X108765530Y-99501000D02*
X109420470Y-99501000D01*
X110035530Y-99501000D02*
X110858000Y-99501000D01*
X107328000Y-99501000D02*
X108150470Y-99501000D01*
X104433000Y-92636400D02*
X104433000Y-93636400D01*
X106133000Y-93636400D02*
X106133000Y-92636400D01*
D12*
X114804000Y-106198000D02*
X114004000Y-106198000D01*
X114804000Y-106698000D02*
X114804000Y-106198000D01*
X115554000Y-106698000D02*
X114804000Y-106698000D01*
X115554000Y-106198000D02*
X115554000Y-106698000D01*
X117304000Y-106198000D02*
X115554000Y-106198000D01*
X117304000Y-106698000D02*
X117304000Y-106198000D01*
X118054000Y-106698000D02*
X117304000Y-106698000D01*
X118054000Y-106198000D02*
X118054000Y-106698000D01*
X118854000Y-106198000D02*
X118054000Y-106198000D01*
X114004000Y-106198000D02*
X114004000Y-106948000D01*
X113504000Y-106198000D02*
X114004000Y-106198000D01*
X113504000Y-105398000D02*
X113504000Y-106198000D01*
X113004000Y-105398000D02*
X113504000Y-105398000D01*
X118854000Y-106198000D02*
X118854000Y-106948000D01*
X119354000Y-106198000D02*
X118854000Y-106198000D01*
X119354000Y-105398000D02*
X119354000Y-106198000D01*
X119854000Y-105398000D02*
X119354000Y-105398000D01*
X113504000Y-104648000D02*
X113004000Y-104648000D01*
X113504000Y-103848000D02*
X113504000Y-104648000D01*
X119354000Y-103848000D02*
X113504000Y-103848000D01*
X119354000Y-104648000D02*
X119354000Y-103848000D01*
X119854000Y-104648000D02*
X119354000Y-104648000D01*
X118004000Y-108048000D02*
X118304000Y-107448000D01*
X118604000Y-108048000D02*
X118004000Y-108048000D01*
X118304000Y-107448000D02*
X118604000Y-108048000D01*
X113004000Y-106948000D02*
X119854000Y-106948000D01*
X113004000Y-103348000D02*
X113004000Y-106948000D01*
X119854000Y-103348000D02*
X113004000Y-103348000D01*
X119854000Y-106948000D02*
X119854000Y-103348000D01*
X111278000Y-106948000D02*
X111278000Y-103348000D01*
X111278000Y-103348000D02*
X104428000Y-103348000D01*
X104428000Y-103348000D02*
X104428000Y-106948000D01*
X104428000Y-106948000D02*
X111278000Y-106948000D01*
X109728000Y-107448000D02*
X110028000Y-108048000D01*
X110028000Y-108048000D02*
X109428000Y-108048000D01*
X109428000Y-108048000D02*
X109728000Y-107448000D01*
X111278000Y-104648000D02*
X110778000Y-104648000D01*
X110778000Y-104648000D02*
X110778000Y-103848000D01*
X110778000Y-103848000D02*
X104928000Y-103848000D01*
X104928000Y-103848000D02*
X104928000Y-104648000D01*
X104928000Y-104648000D02*
X104428000Y-104648000D01*
X111278000Y-105398000D02*
X110778000Y-105398000D01*
X110778000Y-105398000D02*
X110778000Y-106198000D01*
X110778000Y-106198000D02*
X110278000Y-106198000D01*
X110278000Y-106198000D02*
X110278000Y-106948000D01*
X104428000Y-105398000D02*
X104928000Y-105398000D01*
X104928000Y-105398000D02*
X104928000Y-106198000D01*
X104928000Y-106198000D02*
X105428000Y-106198000D01*
X105428000Y-106198000D02*
X105428000Y-106948000D01*
X110278000Y-106198000D02*
X109478000Y-106198000D01*
X109478000Y-106198000D02*
X109478000Y-106698000D01*
X109478000Y-106698000D02*
X108728000Y-106698000D01*
X108728000Y-106698000D02*
X108728000Y-106198000D01*
X108728000Y-106198000D02*
X106978000Y-106198000D01*
X106978000Y-106198000D02*
X106978000Y-106698000D01*
X106978000Y-106698000D02*
X106228000Y-106698000D01*
X106228000Y-106698000D02*
X106228000Y-106198000D01*
X106228000Y-106198000D02*
X105428000Y-106198000D01*
D13*
X104463960Y-98622400D02*
X104463960Y-97422400D01*
X106223960Y-97422400D02*
X106223960Y-98622400D01*
D10*
X120327428Y-90796714D02*
X120327428Y-91413571D01*
X120363714Y-91486142D01*
X120400000Y-91522428D01*
X120472571Y-91558714D01*
X120617714Y-91558714D01*
X120690285Y-91522428D01*
X120726571Y-91486142D01*
X120762857Y-91413571D01*
X120762857Y-90796714D01*
X121524857Y-91558714D02*
X121089428Y-91558714D01*
X121307142Y-91558714D02*
X121307142Y-90796714D01*
X121234571Y-90905571D01*
X121162000Y-90978142D01*
X121089428Y-91014428D01*
X107188000Y-89498714D02*
X107188000Y-90043000D01*
X107151714Y-90151857D01*
X107079142Y-90224428D01*
X106970285Y-90260714D01*
X106897714Y-90260714D01*
X107950000Y-90260714D02*
X107514571Y-90260714D01*
X107732285Y-90260714D02*
X107732285Y-89498714D01*
X107659714Y-89607571D01*
X107587142Y-89680142D01*
X107514571Y-89716428D01*
X104720571Y-90667114D02*
X104720571Y-89905114D01*
X104902000Y-89905114D01*
X105010857Y-89941400D01*
X105083428Y-90013971D01*
X105119714Y-90086542D01*
X105156000Y-90231685D01*
X105156000Y-90340542D01*
X105119714Y-90485685D01*
X105083428Y-90558257D01*
X105010857Y-90630828D01*
X104902000Y-90667114D01*
X104720571Y-90667114D01*
X105881714Y-90667114D02*
X105446285Y-90667114D01*
X105664000Y-90667114D02*
X105664000Y-89905114D01*
X105591428Y-90013971D01*
X105518857Y-90086542D01*
X105446285Y-90122828D01*
X113202720Y-102269834D02*
X113202720Y-102814120D01*
X113166434Y-102922977D01*
X113093862Y-102995548D01*
X112985005Y-103031834D01*
X112912434Y-103031834D01*
X113529291Y-102342405D02*
X113565577Y-102306120D01*
X113638148Y-102269834D01*
X113819577Y-102269834D01*
X113892148Y-102306120D01*
X113928434Y-102342405D01*
X113964720Y-102414977D01*
X113964720Y-102487548D01*
X113928434Y-102596405D01*
X113493005Y-103031834D01*
X113964720Y-103031834D01*
X114893634Y-103016594D02*
X114893634Y-102254594D01*
X115183920Y-102254594D01*
X115256491Y-102290880D01*
X115292777Y-102327165D01*
X115329062Y-102399737D01*
X115329062Y-102508594D01*
X115292777Y-102581165D01*
X115256491Y-102617451D01*
X115183920Y-102653737D01*
X114893634Y-102653737D01*
X115655634Y-103016594D02*
X115655634Y-102508594D01*
X115655634Y-102653737D02*
X115691920Y-102581165D01*
X115728205Y-102544880D01*
X115800777Y-102508594D01*
X115873348Y-102508594D01*
X116236205Y-103016594D02*
X116163634Y-102980308D01*
X116127348Y-102944022D01*
X116091062Y-102871451D01*
X116091062Y-102653737D01*
X116127348Y-102581165D01*
X116163634Y-102544880D01*
X116236205Y-102508594D01*
X116345062Y-102508594D01*
X116417634Y-102544880D01*
X116453920Y-102581165D01*
X116490205Y-102653737D01*
X116490205Y-102871451D01*
X116453920Y-102944022D01*
X116417634Y-102980308D01*
X116345062Y-103016594D01*
X116236205Y-103016594D01*
X117143348Y-102508594D02*
X117143348Y-103125451D01*
X117107062Y-103198022D01*
X117070777Y-103234308D01*
X116998205Y-103270594D01*
X116889348Y-103270594D01*
X116816777Y-103234308D01*
X117143348Y-102980308D02*
X117070777Y-103016594D01*
X116925634Y-103016594D01*
X116853062Y-102980308D01*
X116816777Y-102944022D01*
X116780491Y-102871451D01*
X116780491Y-102653737D01*
X116816777Y-102581165D01*
X116853062Y-102544880D01*
X116925634Y-102508594D01*
X117070777Y-102508594D01*
X117143348Y-102544880D01*
X117506205Y-103016594D02*
X117506205Y-102508594D01*
X117506205Y-102653737D02*
X117542491Y-102581165D01*
X117578777Y-102544880D01*
X117651348Y-102508594D01*
X117723920Y-102508594D01*
X118304491Y-103016594D02*
X118304491Y-102617451D01*
X118268205Y-102544880D01*
X118195634Y-102508594D01*
X118050491Y-102508594D01*
X117977920Y-102544880D01*
X118304491Y-102980308D02*
X118231920Y-103016594D01*
X118050491Y-103016594D01*
X117977920Y-102980308D01*
X117941634Y-102907737D01*
X117941634Y-102835165D01*
X117977920Y-102762594D01*
X118050491Y-102726308D01*
X118231920Y-102726308D01*
X118304491Y-102690022D01*
X118667348Y-103016594D02*
X118667348Y-102508594D01*
X118667348Y-102581165D02*
X118703634Y-102544880D01*
X118776205Y-102508594D01*
X118885062Y-102508594D01*
X118957634Y-102544880D01*
X118993920Y-102617451D01*
X118993920Y-103016594D01*
X118993920Y-102617451D02*
X119030205Y-102544880D01*
X119102777Y-102508594D01*
X119211634Y-102508594D01*
X119284205Y-102544880D01*
X119320491Y-102617451D01*
X119320491Y-103016594D01*
X119683348Y-103016594D02*
X119683348Y-102508594D01*
X119683348Y-102581165D02*
X119719634Y-102544880D01*
X119792205Y-102508594D01*
X119901062Y-102508594D01*
X119973634Y-102544880D01*
X120009920Y-102617451D01*
X120009920Y-103016594D01*
X120009920Y-102617451D02*
X120046205Y-102544880D01*
X120118777Y-102508594D01*
X120227634Y-102508594D01*
X120300205Y-102544880D01*
X120336491Y-102617451D01*
X120336491Y-103016594D01*
X120699348Y-103016594D02*
X120699348Y-102508594D01*
X120699348Y-102254594D02*
X120663062Y-102290880D01*
X120699348Y-102327165D01*
X120735634Y-102290880D01*
X120699348Y-102254594D01*
X120699348Y-102327165D01*
X121062205Y-102508594D02*
X121062205Y-103016594D01*
X121062205Y-102581165D02*
X121098491Y-102544880D01*
X121171062Y-102508594D01*
X121279920Y-102508594D01*
X121352491Y-102544880D01*
X121388777Y-102617451D01*
X121388777Y-103016594D01*
X122078205Y-102508594D02*
X122078205Y-103125451D01*
X122041920Y-103198022D01*
X122005634Y-103234308D01*
X121933062Y-103270594D01*
X121824205Y-103270594D01*
X121751634Y-103234308D01*
X122078205Y-102980308D02*
X122005634Y-103016594D01*
X121860491Y-103016594D01*
X121787920Y-102980308D01*
X121751634Y-102944022D01*
X121715348Y-102871451D01*
X121715348Y-102653737D01*
X121751634Y-102581165D01*
X121787920Y-102544880D01*
X121860491Y-102508594D01*
X122005634Y-102508594D01*
X122078205Y-102544880D01*
X104719120Y-102366354D02*
X104719120Y-102910640D01*
X104682834Y-103019497D01*
X104610262Y-103092068D01*
X104501405Y-103128354D01*
X104428834Y-103128354D01*
X105009405Y-102366354D02*
X105481120Y-102366354D01*
X105227120Y-102656640D01*
X105335977Y-102656640D01*
X105408548Y-102692925D01*
X105444834Y-102729211D01*
X105481120Y-102801782D01*
X105481120Y-102983211D01*
X105444834Y-103055782D01*
X105408548Y-103092068D01*
X105335977Y-103128354D01*
X105118262Y-103128354D01*
X105045691Y-103092068D01*
X105009405Y-103055782D01*
X106372297Y-103011514D02*
X106372297Y-102249514D01*
X107170582Y-103011514D02*
X106916582Y-102648657D01*
X106735154Y-103011514D02*
X106735154Y-102249514D01*
X107025440Y-102249514D01*
X107098011Y-102285800D01*
X107134297Y-102322085D01*
X107170582Y-102394657D01*
X107170582Y-102503514D01*
X107134297Y-102576085D01*
X107098011Y-102612371D01*
X107025440Y-102648657D01*
X106735154Y-102648657D01*
X107315725Y-103084085D02*
X107896297Y-103084085D01*
X108513154Y-103011514D02*
X108259154Y-102648657D01*
X108077725Y-103011514D02*
X108077725Y-102249514D01*
X108368011Y-102249514D01*
X108440582Y-102285800D01*
X108476868Y-102322085D01*
X108513154Y-102394657D01*
X108513154Y-102503514D01*
X108476868Y-102576085D01*
X108440582Y-102612371D01*
X108368011Y-102648657D01*
X108077725Y-102648657D01*
X108767154Y-102249514D02*
X109275154Y-103011514D01*
X109275154Y-102249514D02*
X108767154Y-103011514D01*
X105216960Y-101335114D02*
X104962960Y-100972257D01*
X104781531Y-101335114D02*
X104781531Y-100573114D01*
X105071817Y-100573114D01*
X105144388Y-100609400D01*
X105180674Y-100645685D01*
X105216960Y-100718257D01*
X105216960Y-100827114D01*
X105180674Y-100899685D01*
X105144388Y-100935971D01*
X105071817Y-100972257D01*
X104781531Y-100972257D01*
X105507245Y-100645685D02*
X105543531Y-100609400D01*
X105616102Y-100573114D01*
X105797531Y-100573114D01*
X105870102Y-100609400D01*
X105906388Y-100645685D01*
X105942674Y-100718257D01*
X105942674Y-100790828D01*
X105906388Y-100899685D01*
X105470960Y-101335114D01*
X105942674Y-101335114D01*
M02*
