G04 #@! TF.GenerationSoftware,KiCad,Pcbnew,(5.1.2)-2*
G04 #@! TF.CreationDate,2020-12-19T11:55:12-08:00*
G04 #@! TF.ProjectId,GrenadeConversion3,4772656e-6164-4654-936f-6e7665727369,rev?*
G04 #@! TF.SameCoordinates,Original*
G04 #@! TF.FileFunction,Copper,L2,Bot*
G04 #@! TF.FilePolarity,Positive*
%FSLAX46Y46*%
G04 Gerber Fmt 4.6, Leading zero omitted, Abs format (unit mm)*
G04 Created by KiCad (PCBNEW (5.1.2)-2) date 2020-12-19 11:55:12*
%MOMM*%
%LPD*%
G04 APERTURE LIST*
%ADD10O,1.000000X1.000000*%
%ADD11R,1.000000X1.000000*%
%ADD12R,1.200000X0.900000*%
%ADD13O,0.950000X1.250000*%
%ADD14R,0.950000X1.250000*%
%ADD15R,0.500000X0.600000*%
%ADD16R,0.600000X0.500000*%
%ADD17C,0.600000*%
%ADD18C,0.254000*%
%ADD19C,0.152400*%
G04 APERTURE END LIST*
D10*
X109728000Y-98806000D03*
X108458000Y-98806000D03*
X109728000Y-97536000D03*
X108458000Y-97536000D03*
X109728000Y-96266000D03*
X108458000Y-96266000D03*
X109728000Y-94996000D03*
X108458000Y-94996000D03*
X109728000Y-93726000D03*
X108458000Y-93726000D03*
X109728000Y-92456000D03*
X108458000Y-92456000D03*
X109728000Y-91186000D03*
D11*
X108458000Y-91186000D03*
D12*
X112268000Y-102108000D03*
X110068000Y-102108000D03*
D13*
X114554000Y-104648000D03*
X115804000Y-104648000D03*
X117054000Y-104648000D03*
D14*
X118304000Y-104648000D03*
X109728000Y-104648000D03*
D13*
X108478000Y-104648000D03*
X107228000Y-104648000D03*
X105978000Y-104648000D03*
D15*
X119634000Y-93260000D03*
X119634000Y-92160000D03*
D16*
X119676000Y-98044000D03*
X118576000Y-98044000D03*
D15*
X113538000Y-96774000D03*
X113538000Y-97874000D03*
X121158000Y-93134000D03*
X121158000Y-94234000D03*
X106934000Y-96164400D03*
X106934000Y-95064400D03*
D16*
X108204000Y-102108000D03*
X107104000Y-102108000D03*
X107146000Y-103124000D03*
X108246000Y-103124000D03*
D17*
X118237000Y-98145600D03*
X113538000Y-96774000D03*
X119542560Y-94747080D03*
X119634000Y-93260000D03*
X115779400Y-92496640D03*
X105293160Y-90373200D03*
X120142000Y-91186000D03*
X120472200Y-99822000D03*
X115422680Y-89935400D03*
X112288320Y-103342440D03*
X112293400Y-98983800D03*
X117896640Y-103195120D03*
X116961920Y-98511360D03*
X117017800Y-101137720D03*
D18*
X107002400Y-94996000D02*
X106934000Y-95064400D01*
X108458000Y-94996000D02*
X107002400Y-94996000D01*
D19*
X120142000Y-91186000D02*
X120142000Y-91652000D01*
X120142000Y-91652000D02*
X119634000Y-92160000D01*
D18*
X120472200Y-98840200D02*
X119676000Y-98044000D01*
X120472200Y-99822000D02*
X120472200Y-98840200D01*
X113287978Y-98223976D02*
X113587977Y-97923977D01*
X112268000Y-99243954D02*
X113287978Y-98223976D01*
X112268000Y-102108000D02*
X112268000Y-99243954D01*
X112268000Y-102108000D02*
X112268000Y-103322120D01*
X112268000Y-103322120D02*
X112288320Y-103342440D01*
X115289680Y-90068400D02*
X115422680Y-89935400D01*
X108072678Y-90068400D02*
X115289680Y-90068400D01*
X106959400Y-91181678D02*
X108072678Y-90068400D01*
X106959400Y-94485000D02*
X106959400Y-91181678D01*
X106934000Y-95064400D02*
X106934000Y-94510400D01*
X106934000Y-94510400D02*
X106959400Y-94485000D01*
X119019320Y-90063320D02*
X120142000Y-91186000D01*
X115422680Y-89935400D02*
X115550600Y-90063320D01*
X115550600Y-90063320D02*
X119019320Y-90063320D01*
X112268000Y-99009200D02*
X112268000Y-99243954D01*
X112293400Y-98983800D02*
X112268000Y-99009200D01*
D19*
X109315600Y-102108000D02*
X108204000Y-102108000D01*
X110068000Y-102108000D02*
X109315600Y-102108000D01*
X108204000Y-103082000D02*
X108246000Y-103124000D01*
X108204000Y-102108000D02*
X108204000Y-103082000D01*
X108246000Y-104416000D02*
X108478000Y-104648000D01*
X108246000Y-103124000D02*
X108246000Y-104416000D01*
X117054000Y-104037760D02*
X117054000Y-104648000D01*
X117896640Y-103195120D02*
X117054000Y-104037760D01*
X116961920Y-101081840D02*
X117017800Y-101137720D01*
X116961920Y-98511360D02*
X116961920Y-101081840D01*
D18*
G36*
X106447049Y-90616399D02*
G01*
X106417979Y-90640256D01*
X106394122Y-90669326D01*
X106394121Y-90669327D01*
X106322755Y-90756286D01*
X106251999Y-90888663D01*
X106208427Y-91032300D01*
X106193714Y-91181678D01*
X106197401Y-91219111D01*
X106197400Y-94313637D01*
X106183026Y-94361022D01*
X106181587Y-94375637D01*
X106153463Y-94409906D01*
X106094498Y-94520220D01*
X106058188Y-94639918D01*
X106045928Y-94764400D01*
X106045928Y-95364400D01*
X106058188Y-95488882D01*
X106094498Y-95608580D01*
X106098318Y-95615726D01*
X106088418Y-95635451D01*
X106055196Y-95756043D01*
X106049000Y-95878650D01*
X106207750Y-96037400D01*
X106811000Y-96037400D01*
X106811000Y-96017400D01*
X107057000Y-96017400D01*
X107057000Y-96037400D01*
X107081000Y-96037400D01*
X107081000Y-96291400D01*
X107057000Y-96291400D01*
X107057000Y-96940650D01*
X107215750Y-97099400D01*
X107324524Y-97086806D01*
X107429799Y-97051893D01*
X107404324Y-97099553D01*
X107339423Y-97313501D01*
X107317509Y-97536000D01*
X107339423Y-97758499D01*
X107404324Y-97972447D01*
X107509716Y-98169623D01*
X107510846Y-98171000D01*
X107509716Y-98172377D01*
X107404324Y-98369553D01*
X107339423Y-98583501D01*
X107317509Y-98806000D01*
X107339423Y-99028499D01*
X107404324Y-99242447D01*
X107509716Y-99439623D01*
X107651551Y-99612449D01*
X107824377Y-99754284D01*
X108021553Y-99859676D01*
X108235501Y-99924577D01*
X108402248Y-99941000D01*
X108513752Y-99941000D01*
X108680499Y-99924577D01*
X108894447Y-99859676D01*
X109091623Y-99754284D01*
X109093000Y-99753154D01*
X109094377Y-99754284D01*
X109291553Y-99859676D01*
X109505501Y-99924577D01*
X109672248Y-99941000D01*
X109783752Y-99941000D01*
X109950499Y-99924577D01*
X110164447Y-99859676D01*
X110361623Y-99754284D01*
X110534449Y-99612449D01*
X110676284Y-99439623D01*
X110781676Y-99242447D01*
X110846577Y-99028499D01*
X110868491Y-98806000D01*
X110846577Y-98583501D01*
X110781676Y-98369553D01*
X110676284Y-98172377D01*
X110675154Y-98171000D01*
X110676284Y-98169623D01*
X110781676Y-97972447D01*
X110846577Y-97758499D01*
X110868491Y-97536000D01*
X110846577Y-97313501D01*
X110781676Y-97099553D01*
X110676284Y-96902377D01*
X110675154Y-96901000D01*
X110676284Y-96899623D01*
X110781676Y-96702447D01*
X110846577Y-96488499D01*
X110846601Y-96488250D01*
X112653000Y-96488250D01*
X112811750Y-96647000D01*
X113415000Y-96647000D01*
X113415000Y-95997750D01*
X113661000Y-95997750D01*
X113661000Y-96647000D01*
X114264250Y-96647000D01*
X114423000Y-96488250D01*
X114416804Y-96365643D01*
X114383582Y-96245051D01*
X114327473Y-96133258D01*
X114250631Y-96034559D01*
X114156012Y-95952748D01*
X114047249Y-95890968D01*
X113928524Y-95851594D01*
X113819750Y-95839000D01*
X113661000Y-95997750D01*
X113415000Y-95997750D01*
X113256250Y-95839000D01*
X113147476Y-95851594D01*
X113028751Y-95890968D01*
X112919988Y-95952748D01*
X112825369Y-96034559D01*
X112748527Y-96133258D01*
X112692418Y-96245051D01*
X112659196Y-96365643D01*
X112653000Y-96488250D01*
X110846601Y-96488250D01*
X110868491Y-96266000D01*
X110846577Y-96043501D01*
X110781676Y-95829553D01*
X110676284Y-95632377D01*
X110668274Y-95622617D01*
X110715123Y-95556206D01*
X110805446Y-95352864D01*
X110822119Y-95297874D01*
X110695954Y-95123000D01*
X109855000Y-95123000D01*
X109855000Y-95138017D01*
X109783752Y-95131000D01*
X109672248Y-95131000D01*
X109601000Y-95138017D01*
X109601000Y-95123000D01*
X109585983Y-95123000D01*
X109598491Y-94996000D01*
X109585983Y-94869000D01*
X109601000Y-94869000D01*
X109601000Y-94853983D01*
X109672248Y-94861000D01*
X109783752Y-94861000D01*
X109855000Y-94853983D01*
X109855000Y-94869000D01*
X110695954Y-94869000D01*
X110822119Y-94694126D01*
X110805446Y-94639136D01*
X110752416Y-94519750D01*
X120273000Y-94519750D01*
X120279196Y-94642357D01*
X120312418Y-94762949D01*
X120368527Y-94874742D01*
X120445369Y-94973441D01*
X120539988Y-95055252D01*
X120648751Y-95117032D01*
X120767476Y-95156406D01*
X120876250Y-95169000D01*
X121035000Y-95010250D01*
X121035000Y-94361000D01*
X120431750Y-94361000D01*
X120273000Y-94519750D01*
X110752416Y-94519750D01*
X110715123Y-94435794D01*
X110668274Y-94369383D01*
X110676284Y-94359623D01*
X110781676Y-94162447D01*
X110846577Y-93948499D01*
X110868491Y-93726000D01*
X110850739Y-93545750D01*
X118749000Y-93545750D01*
X118755196Y-93668357D01*
X118788418Y-93788949D01*
X118844527Y-93900742D01*
X118921369Y-93999441D01*
X119015988Y-94081252D01*
X119124751Y-94143032D01*
X119243476Y-94182406D01*
X119352250Y-94195000D01*
X119511000Y-94036250D01*
X119511000Y-93387000D01*
X118907750Y-93387000D01*
X118749000Y-93545750D01*
X110850739Y-93545750D01*
X110846577Y-93503501D01*
X110781676Y-93289553D01*
X110676284Y-93092377D01*
X110675154Y-93091000D01*
X110676284Y-93089623D01*
X110781676Y-92892447D01*
X110846577Y-92678499D01*
X110868491Y-92456000D01*
X110846577Y-92233501D01*
X110781676Y-92019553D01*
X110676284Y-91822377D01*
X110675154Y-91821000D01*
X110676284Y-91819623D01*
X110781676Y-91622447D01*
X110846577Y-91408499D01*
X110868491Y-91186000D01*
X110846577Y-90963501D01*
X110806201Y-90830400D01*
X115140130Y-90830400D01*
X115149951Y-90834468D01*
X115330591Y-90870400D01*
X115514769Y-90870400D01*
X115695409Y-90834468D01*
X115717494Y-90825320D01*
X118703690Y-90825320D01*
X119146762Y-91268392D01*
X119139820Y-91270498D01*
X119029506Y-91329463D01*
X118932815Y-91408815D01*
X118853463Y-91505506D01*
X118794498Y-91615820D01*
X118758188Y-91735518D01*
X118745928Y-91860000D01*
X118745928Y-92460000D01*
X118758188Y-92584482D01*
X118794498Y-92704180D01*
X118798318Y-92711326D01*
X118788418Y-92731051D01*
X118755196Y-92851643D01*
X118749000Y-92974250D01*
X118907750Y-93133000D01*
X119511000Y-93133000D01*
X119511000Y-93113000D01*
X119757000Y-93113000D01*
X119757000Y-93133000D01*
X119781000Y-93133000D01*
X119781000Y-93387000D01*
X119757000Y-93387000D01*
X119757000Y-94036250D01*
X119915750Y-94195000D01*
X120024524Y-94182406D01*
X120143249Y-94143032D01*
X120252012Y-94081252D01*
X120334596Y-94009846D01*
X120431750Y-94107000D01*
X121035000Y-94107000D01*
X121035000Y-94087000D01*
X121281000Y-94087000D01*
X121281000Y-94107000D01*
X121305000Y-94107000D01*
X121305000Y-94361000D01*
X121281000Y-94361000D01*
X121281000Y-95010250D01*
X121439750Y-95169000D01*
X121464000Y-95166192D01*
X121464001Y-106732000D01*
X104342000Y-106732000D01*
X104342000Y-104443479D01*
X104868000Y-104443479D01*
X104868000Y-104852520D01*
X104884062Y-105015597D01*
X104947532Y-105224833D01*
X105050604Y-105417666D01*
X105189314Y-105586686D01*
X105358334Y-105725396D01*
X105551166Y-105828468D01*
X105760402Y-105891938D01*
X105978000Y-105913370D01*
X106195597Y-105891938D01*
X106404833Y-105828468D01*
X106597666Y-105725396D01*
X106609066Y-105716040D01*
X106741850Y-105797603D01*
X106930062Y-105867268D01*
X107101000Y-105740734D01*
X107101000Y-104775000D01*
X107088000Y-104775000D01*
X107088000Y-104521000D01*
X107101000Y-104521000D01*
X107101000Y-103555266D01*
X107019000Y-103494567D01*
X107019000Y-103247000D01*
X106369750Y-103247000D01*
X106211000Y-103405750D01*
X106211358Y-103408843D01*
X106195598Y-103404062D01*
X105978000Y-103382630D01*
X105760403Y-103404062D01*
X105551167Y-103467532D01*
X105358335Y-103570604D01*
X105189315Y-103709314D01*
X105050604Y-103878334D01*
X104947532Y-104071166D01*
X104884062Y-104280402D01*
X104868000Y-104443479D01*
X104342000Y-104443479D01*
X104342000Y-102389750D01*
X106169000Y-102389750D01*
X106181594Y-102498524D01*
X106220968Y-102617249D01*
X106246963Y-102663012D01*
X106223594Y-102733476D01*
X106211000Y-102842250D01*
X106369750Y-103001000D01*
X107019000Y-103001000D01*
X107019000Y-102397750D01*
X106977000Y-102355750D01*
X106977000Y-102231000D01*
X106327750Y-102231000D01*
X106169000Y-102389750D01*
X104342000Y-102389750D01*
X104342000Y-101826250D01*
X106169000Y-101826250D01*
X106327750Y-101985000D01*
X106977000Y-101985000D01*
X106977000Y-101381750D01*
X107231000Y-101381750D01*
X107231000Y-101985000D01*
X107251000Y-101985000D01*
X107251000Y-102231000D01*
X107231000Y-102231000D01*
X107231000Y-102834250D01*
X107273000Y-102876250D01*
X107273000Y-103001000D01*
X107293000Y-103001000D01*
X107293000Y-103247000D01*
X107273000Y-103247000D01*
X107273000Y-103850250D01*
X107355000Y-103932250D01*
X107355000Y-104521000D01*
X107368000Y-104521000D01*
X107368000Y-104775000D01*
X107355000Y-104775000D01*
X107355000Y-105740734D01*
X107525938Y-105867268D01*
X107714150Y-105797603D01*
X107846934Y-105716040D01*
X107858334Y-105725396D01*
X108051166Y-105828468D01*
X108260402Y-105891938D01*
X108478000Y-105913370D01*
X108695597Y-105891938D01*
X108904833Y-105828468D01*
X108924991Y-105817694D01*
X109008820Y-105862502D01*
X109128518Y-105898812D01*
X109253000Y-105911072D01*
X110203000Y-105911072D01*
X110327482Y-105898812D01*
X110447180Y-105862502D01*
X110557494Y-105803537D01*
X110654185Y-105724185D01*
X110733537Y-105627494D01*
X110792502Y-105517180D01*
X110828812Y-105397482D01*
X110841072Y-105273000D01*
X110841072Y-104949131D01*
X113452770Y-104949131D01*
X113503414Y-105161066D01*
X113594431Y-105359049D01*
X113722324Y-105535471D01*
X113882178Y-105683553D01*
X114067850Y-105797603D01*
X114256062Y-105867268D01*
X114427000Y-105740734D01*
X114427000Y-104775000D01*
X113601436Y-104775000D01*
X113452770Y-104949131D01*
X110841072Y-104949131D01*
X110841072Y-104346869D01*
X113452770Y-104346869D01*
X113601436Y-104521000D01*
X114427000Y-104521000D01*
X114427000Y-103555266D01*
X114681000Y-103555266D01*
X114681000Y-104521000D01*
X114694000Y-104521000D01*
X114694000Y-104775000D01*
X114681000Y-104775000D01*
X114681000Y-105740734D01*
X114851938Y-105867268D01*
X115040150Y-105797603D01*
X115172934Y-105716040D01*
X115184334Y-105725396D01*
X115377166Y-105828468D01*
X115586402Y-105891938D01*
X115804000Y-105913370D01*
X116021597Y-105891938D01*
X116230833Y-105828468D01*
X116423666Y-105725396D01*
X116429000Y-105721019D01*
X116434334Y-105725396D01*
X116627166Y-105828468D01*
X116836402Y-105891938D01*
X117054000Y-105913370D01*
X117271597Y-105891938D01*
X117480833Y-105828468D01*
X117500991Y-105817694D01*
X117584820Y-105862502D01*
X117704518Y-105898812D01*
X117829000Y-105911072D01*
X118779000Y-105911072D01*
X118903482Y-105898812D01*
X119023180Y-105862502D01*
X119133494Y-105803537D01*
X119230185Y-105724185D01*
X119309537Y-105627494D01*
X119368502Y-105517180D01*
X119404812Y-105397482D01*
X119417072Y-105273000D01*
X119417072Y-104023000D01*
X119404812Y-103898518D01*
X119368502Y-103778820D01*
X119309537Y-103668506D01*
X119230185Y-103571815D01*
X119133494Y-103492463D01*
X119023180Y-103433498D01*
X118903482Y-103397188D01*
X118811564Y-103388135D01*
X118831640Y-103287209D01*
X118831640Y-103103031D01*
X118795708Y-102922391D01*
X118725226Y-102752231D01*
X118622902Y-102599092D01*
X118492668Y-102468858D01*
X118339529Y-102366534D01*
X118169369Y-102296052D01*
X117988729Y-102260120D01*
X117804551Y-102260120D01*
X117623911Y-102296052D01*
X117453751Y-102366534D01*
X117300612Y-102468858D01*
X117170378Y-102599092D01*
X117068054Y-102752231D01*
X116997572Y-102922391D01*
X116961640Y-103103031D01*
X116961640Y-103124333D01*
X116608421Y-103477552D01*
X116434335Y-103570604D01*
X116429000Y-103574982D01*
X116423666Y-103570604D01*
X116230834Y-103467532D01*
X116021598Y-103404062D01*
X115804000Y-103382630D01*
X115586403Y-103404062D01*
X115377167Y-103467532D01*
X115184335Y-103570604D01*
X115172934Y-103579960D01*
X115040150Y-103498397D01*
X114851938Y-103428732D01*
X114681000Y-103555266D01*
X114427000Y-103555266D01*
X114256062Y-103428732D01*
X114067850Y-103498397D01*
X113882178Y-103612447D01*
X113722324Y-103760529D01*
X113594431Y-103936951D01*
X113503414Y-104134934D01*
X113452770Y-104346869D01*
X110841072Y-104346869D01*
X110841072Y-104023000D01*
X110828812Y-103898518D01*
X110792502Y-103778820D01*
X110733537Y-103668506D01*
X110654185Y-103571815D01*
X110557494Y-103492463D01*
X110447180Y-103433498D01*
X110327482Y-103397188D01*
X110203000Y-103384928D01*
X109253000Y-103384928D01*
X109182310Y-103391890D01*
X109184072Y-103374000D01*
X109184072Y-103126256D01*
X109223820Y-103147502D01*
X109343518Y-103183812D01*
X109468000Y-103196072D01*
X110668000Y-103196072D01*
X110792482Y-103183812D01*
X110912180Y-103147502D01*
X111022494Y-103088537D01*
X111119185Y-103009185D01*
X111168000Y-102949704D01*
X111216815Y-103009185D01*
X111313506Y-103088537D01*
X111378588Y-103123324D01*
X111353320Y-103250351D01*
X111353320Y-103434529D01*
X111389252Y-103615169D01*
X111459734Y-103785329D01*
X111562058Y-103938468D01*
X111692292Y-104068702D01*
X111845431Y-104171026D01*
X112015591Y-104241508D01*
X112196231Y-104277440D01*
X112380409Y-104277440D01*
X112561049Y-104241508D01*
X112731209Y-104171026D01*
X112884348Y-104068702D01*
X113014582Y-103938468D01*
X113116906Y-103785329D01*
X113187388Y-103615169D01*
X113223320Y-103434529D01*
X113223320Y-103250351D01*
X113194147Y-103103689D01*
X113222494Y-103088537D01*
X113319185Y-103009185D01*
X113398537Y-102912494D01*
X113457502Y-102802180D01*
X113493812Y-102682482D01*
X113506072Y-102558000D01*
X113506072Y-101658000D01*
X113493812Y-101533518D01*
X113457502Y-101413820D01*
X113398537Y-101303506D01*
X113319185Y-101206815D01*
X113222494Y-101127463D01*
X113112180Y-101068498D01*
X113030000Y-101043569D01*
X113030000Y-99564356D01*
X113039609Y-99549975D01*
X113777512Y-98812072D01*
X113788000Y-98812072D01*
X113912482Y-98799812D01*
X114032180Y-98763502D01*
X114142494Y-98704537D01*
X114239185Y-98625185D01*
X114318537Y-98528494D01*
X114376918Y-98419271D01*
X116026920Y-98419271D01*
X116026920Y-98603449D01*
X116062852Y-98784089D01*
X116133334Y-98954249D01*
X116235658Y-99107388D01*
X116250720Y-99122450D01*
X116250721Y-100602779D01*
X116189214Y-100694831D01*
X116118732Y-100864991D01*
X116082800Y-101045631D01*
X116082800Y-101229809D01*
X116118732Y-101410449D01*
X116189214Y-101580609D01*
X116291538Y-101733748D01*
X116421772Y-101863982D01*
X116574911Y-101966306D01*
X116745071Y-102036788D01*
X116925711Y-102072720D01*
X117109889Y-102072720D01*
X117290529Y-102036788D01*
X117460689Y-101966306D01*
X117613828Y-101863982D01*
X117744062Y-101733748D01*
X117846386Y-101580609D01*
X117916868Y-101410449D01*
X117952800Y-101229809D01*
X117952800Y-101045631D01*
X117916868Y-100864991D01*
X117846386Y-100694831D01*
X117744062Y-100541692D01*
X117673120Y-100470750D01*
X117673120Y-99122450D01*
X117688182Y-99107388D01*
X117790506Y-98954249D01*
X117860988Y-98784089D01*
X117862442Y-98776782D01*
X117935258Y-98833473D01*
X118047051Y-98889582D01*
X118167643Y-98922804D01*
X118290250Y-98929000D01*
X118449000Y-98770250D01*
X118449000Y-98167000D01*
X118429000Y-98167000D01*
X118429000Y-97921000D01*
X118449000Y-97921000D01*
X118449000Y-97317750D01*
X118703000Y-97317750D01*
X118703000Y-97921000D01*
X118723000Y-97921000D01*
X118723000Y-98167000D01*
X118703000Y-98167000D01*
X118703000Y-98770250D01*
X118861750Y-98929000D01*
X118984357Y-98922804D01*
X119104949Y-98889582D01*
X119124674Y-98879682D01*
X119131820Y-98883502D01*
X119251518Y-98919812D01*
X119376000Y-98932072D01*
X119486442Y-98932072D01*
X119710201Y-99155831D01*
X119710201Y-99279457D01*
X119643614Y-99379111D01*
X119573132Y-99549271D01*
X119537200Y-99729911D01*
X119537200Y-99914089D01*
X119573132Y-100094729D01*
X119643614Y-100264889D01*
X119745938Y-100418028D01*
X119876172Y-100548262D01*
X120029311Y-100650586D01*
X120199471Y-100721068D01*
X120380111Y-100757000D01*
X120564289Y-100757000D01*
X120744929Y-100721068D01*
X120915089Y-100650586D01*
X121068228Y-100548262D01*
X121198462Y-100418028D01*
X121300786Y-100264889D01*
X121371268Y-100094729D01*
X121407200Y-99914089D01*
X121407200Y-99729911D01*
X121371268Y-99549271D01*
X121300786Y-99379111D01*
X121234200Y-99279458D01*
X121234200Y-98877623D01*
X121237886Y-98840200D01*
X121233908Y-98799812D01*
X121223174Y-98690822D01*
X121179602Y-98547185D01*
X121141780Y-98476425D01*
X121108845Y-98414807D01*
X121037479Y-98327848D01*
X121013622Y-98298778D01*
X120984551Y-98274920D01*
X120614072Y-97904441D01*
X120614072Y-97794000D01*
X120601812Y-97669518D01*
X120565502Y-97549820D01*
X120506537Y-97439506D01*
X120427185Y-97342815D01*
X120330494Y-97263463D01*
X120220180Y-97204498D01*
X120100482Y-97168188D01*
X119976000Y-97155928D01*
X119376000Y-97155928D01*
X119251518Y-97168188D01*
X119131820Y-97204498D01*
X119124674Y-97208318D01*
X119104949Y-97198418D01*
X118984357Y-97165196D01*
X118861750Y-97159000D01*
X118703000Y-97317750D01*
X118449000Y-97317750D01*
X118290250Y-97159000D01*
X118167643Y-97165196D01*
X118047051Y-97198418D01*
X117935258Y-97254527D01*
X117836559Y-97331369D01*
X117754748Y-97425988D01*
X117692968Y-97534751D01*
X117653594Y-97653476D01*
X117641000Y-97762250D01*
X117795748Y-97916998D01*
X117689295Y-97916998D01*
X117688182Y-97915332D01*
X117557948Y-97785098D01*
X117404809Y-97682774D01*
X117234649Y-97612292D01*
X117054009Y-97576360D01*
X116869831Y-97576360D01*
X116689191Y-97612292D01*
X116519031Y-97682774D01*
X116365892Y-97785098D01*
X116235658Y-97915332D01*
X116133334Y-98068471D01*
X116062852Y-98238631D01*
X116026920Y-98419271D01*
X114376918Y-98419271D01*
X114377502Y-98418180D01*
X114413812Y-98298482D01*
X114426072Y-98174000D01*
X114426072Y-97574000D01*
X114413812Y-97449518D01*
X114377502Y-97329820D01*
X114373682Y-97322674D01*
X114383582Y-97302949D01*
X114416804Y-97182357D01*
X114423000Y-97059750D01*
X114264250Y-96901000D01*
X113661000Y-96901000D01*
X113661000Y-96921000D01*
X113415000Y-96921000D01*
X113415000Y-96901000D01*
X112811750Y-96901000D01*
X112653000Y-97059750D01*
X112659196Y-97182357D01*
X112692418Y-97302949D01*
X112702318Y-97322674D01*
X112698498Y-97329820D01*
X112662188Y-97449518D01*
X112649928Y-97574000D01*
X112649928Y-97784396D01*
X112385518Y-98048806D01*
X112385489Y-98048800D01*
X112201311Y-98048800D01*
X112020671Y-98084732D01*
X111850511Y-98155214D01*
X111697372Y-98257538D01*
X111567138Y-98387772D01*
X111464814Y-98540911D01*
X111394332Y-98711071D01*
X111358400Y-98891711D01*
X111358400Y-99075889D01*
X111394332Y-99256529D01*
X111464814Y-99426689D01*
X111506001Y-99488330D01*
X111506000Y-101043569D01*
X111423820Y-101068498D01*
X111313506Y-101127463D01*
X111216815Y-101206815D01*
X111168000Y-101266296D01*
X111119185Y-101206815D01*
X111022494Y-101127463D01*
X110912180Y-101068498D01*
X110792482Y-101032188D01*
X110668000Y-101019928D01*
X109468000Y-101019928D01*
X109343518Y-101032188D01*
X109223820Y-101068498D01*
X109113506Y-101127463D01*
X109016815Y-101206815D01*
X108937463Y-101303506D01*
X108904483Y-101365205D01*
X108858494Y-101327463D01*
X108748180Y-101268498D01*
X108628482Y-101232188D01*
X108504000Y-101219928D01*
X107904000Y-101219928D01*
X107779518Y-101232188D01*
X107659820Y-101268498D01*
X107652674Y-101272318D01*
X107632949Y-101262418D01*
X107512357Y-101229196D01*
X107389750Y-101223000D01*
X107231000Y-101381750D01*
X106977000Y-101381750D01*
X106818250Y-101223000D01*
X106695643Y-101229196D01*
X106575051Y-101262418D01*
X106463258Y-101318527D01*
X106364559Y-101395369D01*
X106282748Y-101489988D01*
X106220968Y-101598751D01*
X106181594Y-101717476D01*
X106169000Y-101826250D01*
X104342000Y-101826250D01*
X104342000Y-96450150D01*
X106049000Y-96450150D01*
X106055196Y-96572757D01*
X106088418Y-96693349D01*
X106144527Y-96805142D01*
X106221369Y-96903841D01*
X106315988Y-96985652D01*
X106424751Y-97047432D01*
X106543476Y-97086806D01*
X106652250Y-97099400D01*
X106811000Y-96940650D01*
X106811000Y-96291400D01*
X106207750Y-96291400D01*
X106049000Y-96450150D01*
X104342000Y-96450150D01*
X104342000Y-90118000D01*
X106945448Y-90118000D01*
X106447049Y-90616399D01*
X106447049Y-90616399D01*
G37*
X106447049Y-90616399D02*
X106417979Y-90640256D01*
X106394122Y-90669326D01*
X106394121Y-90669327D01*
X106322755Y-90756286D01*
X106251999Y-90888663D01*
X106208427Y-91032300D01*
X106193714Y-91181678D01*
X106197401Y-91219111D01*
X106197400Y-94313637D01*
X106183026Y-94361022D01*
X106181587Y-94375637D01*
X106153463Y-94409906D01*
X106094498Y-94520220D01*
X106058188Y-94639918D01*
X106045928Y-94764400D01*
X106045928Y-95364400D01*
X106058188Y-95488882D01*
X106094498Y-95608580D01*
X106098318Y-95615726D01*
X106088418Y-95635451D01*
X106055196Y-95756043D01*
X106049000Y-95878650D01*
X106207750Y-96037400D01*
X106811000Y-96037400D01*
X106811000Y-96017400D01*
X107057000Y-96017400D01*
X107057000Y-96037400D01*
X107081000Y-96037400D01*
X107081000Y-96291400D01*
X107057000Y-96291400D01*
X107057000Y-96940650D01*
X107215750Y-97099400D01*
X107324524Y-97086806D01*
X107429799Y-97051893D01*
X107404324Y-97099553D01*
X107339423Y-97313501D01*
X107317509Y-97536000D01*
X107339423Y-97758499D01*
X107404324Y-97972447D01*
X107509716Y-98169623D01*
X107510846Y-98171000D01*
X107509716Y-98172377D01*
X107404324Y-98369553D01*
X107339423Y-98583501D01*
X107317509Y-98806000D01*
X107339423Y-99028499D01*
X107404324Y-99242447D01*
X107509716Y-99439623D01*
X107651551Y-99612449D01*
X107824377Y-99754284D01*
X108021553Y-99859676D01*
X108235501Y-99924577D01*
X108402248Y-99941000D01*
X108513752Y-99941000D01*
X108680499Y-99924577D01*
X108894447Y-99859676D01*
X109091623Y-99754284D01*
X109093000Y-99753154D01*
X109094377Y-99754284D01*
X109291553Y-99859676D01*
X109505501Y-99924577D01*
X109672248Y-99941000D01*
X109783752Y-99941000D01*
X109950499Y-99924577D01*
X110164447Y-99859676D01*
X110361623Y-99754284D01*
X110534449Y-99612449D01*
X110676284Y-99439623D01*
X110781676Y-99242447D01*
X110846577Y-99028499D01*
X110868491Y-98806000D01*
X110846577Y-98583501D01*
X110781676Y-98369553D01*
X110676284Y-98172377D01*
X110675154Y-98171000D01*
X110676284Y-98169623D01*
X110781676Y-97972447D01*
X110846577Y-97758499D01*
X110868491Y-97536000D01*
X110846577Y-97313501D01*
X110781676Y-97099553D01*
X110676284Y-96902377D01*
X110675154Y-96901000D01*
X110676284Y-96899623D01*
X110781676Y-96702447D01*
X110846577Y-96488499D01*
X110846601Y-96488250D01*
X112653000Y-96488250D01*
X112811750Y-96647000D01*
X113415000Y-96647000D01*
X113415000Y-95997750D01*
X113661000Y-95997750D01*
X113661000Y-96647000D01*
X114264250Y-96647000D01*
X114423000Y-96488250D01*
X114416804Y-96365643D01*
X114383582Y-96245051D01*
X114327473Y-96133258D01*
X114250631Y-96034559D01*
X114156012Y-95952748D01*
X114047249Y-95890968D01*
X113928524Y-95851594D01*
X113819750Y-95839000D01*
X113661000Y-95997750D01*
X113415000Y-95997750D01*
X113256250Y-95839000D01*
X113147476Y-95851594D01*
X113028751Y-95890968D01*
X112919988Y-95952748D01*
X112825369Y-96034559D01*
X112748527Y-96133258D01*
X112692418Y-96245051D01*
X112659196Y-96365643D01*
X112653000Y-96488250D01*
X110846601Y-96488250D01*
X110868491Y-96266000D01*
X110846577Y-96043501D01*
X110781676Y-95829553D01*
X110676284Y-95632377D01*
X110668274Y-95622617D01*
X110715123Y-95556206D01*
X110805446Y-95352864D01*
X110822119Y-95297874D01*
X110695954Y-95123000D01*
X109855000Y-95123000D01*
X109855000Y-95138017D01*
X109783752Y-95131000D01*
X109672248Y-95131000D01*
X109601000Y-95138017D01*
X109601000Y-95123000D01*
X109585983Y-95123000D01*
X109598491Y-94996000D01*
X109585983Y-94869000D01*
X109601000Y-94869000D01*
X109601000Y-94853983D01*
X109672248Y-94861000D01*
X109783752Y-94861000D01*
X109855000Y-94853983D01*
X109855000Y-94869000D01*
X110695954Y-94869000D01*
X110822119Y-94694126D01*
X110805446Y-94639136D01*
X110752416Y-94519750D01*
X120273000Y-94519750D01*
X120279196Y-94642357D01*
X120312418Y-94762949D01*
X120368527Y-94874742D01*
X120445369Y-94973441D01*
X120539988Y-95055252D01*
X120648751Y-95117032D01*
X120767476Y-95156406D01*
X120876250Y-95169000D01*
X121035000Y-95010250D01*
X121035000Y-94361000D01*
X120431750Y-94361000D01*
X120273000Y-94519750D01*
X110752416Y-94519750D01*
X110715123Y-94435794D01*
X110668274Y-94369383D01*
X110676284Y-94359623D01*
X110781676Y-94162447D01*
X110846577Y-93948499D01*
X110868491Y-93726000D01*
X110850739Y-93545750D01*
X118749000Y-93545750D01*
X118755196Y-93668357D01*
X118788418Y-93788949D01*
X118844527Y-93900742D01*
X118921369Y-93999441D01*
X119015988Y-94081252D01*
X119124751Y-94143032D01*
X119243476Y-94182406D01*
X119352250Y-94195000D01*
X119511000Y-94036250D01*
X119511000Y-93387000D01*
X118907750Y-93387000D01*
X118749000Y-93545750D01*
X110850739Y-93545750D01*
X110846577Y-93503501D01*
X110781676Y-93289553D01*
X110676284Y-93092377D01*
X110675154Y-93091000D01*
X110676284Y-93089623D01*
X110781676Y-92892447D01*
X110846577Y-92678499D01*
X110868491Y-92456000D01*
X110846577Y-92233501D01*
X110781676Y-92019553D01*
X110676284Y-91822377D01*
X110675154Y-91821000D01*
X110676284Y-91819623D01*
X110781676Y-91622447D01*
X110846577Y-91408499D01*
X110868491Y-91186000D01*
X110846577Y-90963501D01*
X110806201Y-90830400D01*
X115140130Y-90830400D01*
X115149951Y-90834468D01*
X115330591Y-90870400D01*
X115514769Y-90870400D01*
X115695409Y-90834468D01*
X115717494Y-90825320D01*
X118703690Y-90825320D01*
X119146762Y-91268392D01*
X119139820Y-91270498D01*
X119029506Y-91329463D01*
X118932815Y-91408815D01*
X118853463Y-91505506D01*
X118794498Y-91615820D01*
X118758188Y-91735518D01*
X118745928Y-91860000D01*
X118745928Y-92460000D01*
X118758188Y-92584482D01*
X118794498Y-92704180D01*
X118798318Y-92711326D01*
X118788418Y-92731051D01*
X118755196Y-92851643D01*
X118749000Y-92974250D01*
X118907750Y-93133000D01*
X119511000Y-93133000D01*
X119511000Y-93113000D01*
X119757000Y-93113000D01*
X119757000Y-93133000D01*
X119781000Y-93133000D01*
X119781000Y-93387000D01*
X119757000Y-93387000D01*
X119757000Y-94036250D01*
X119915750Y-94195000D01*
X120024524Y-94182406D01*
X120143249Y-94143032D01*
X120252012Y-94081252D01*
X120334596Y-94009846D01*
X120431750Y-94107000D01*
X121035000Y-94107000D01*
X121035000Y-94087000D01*
X121281000Y-94087000D01*
X121281000Y-94107000D01*
X121305000Y-94107000D01*
X121305000Y-94361000D01*
X121281000Y-94361000D01*
X121281000Y-95010250D01*
X121439750Y-95169000D01*
X121464000Y-95166192D01*
X121464001Y-106732000D01*
X104342000Y-106732000D01*
X104342000Y-104443479D01*
X104868000Y-104443479D01*
X104868000Y-104852520D01*
X104884062Y-105015597D01*
X104947532Y-105224833D01*
X105050604Y-105417666D01*
X105189314Y-105586686D01*
X105358334Y-105725396D01*
X105551166Y-105828468D01*
X105760402Y-105891938D01*
X105978000Y-105913370D01*
X106195597Y-105891938D01*
X106404833Y-105828468D01*
X106597666Y-105725396D01*
X106609066Y-105716040D01*
X106741850Y-105797603D01*
X106930062Y-105867268D01*
X107101000Y-105740734D01*
X107101000Y-104775000D01*
X107088000Y-104775000D01*
X107088000Y-104521000D01*
X107101000Y-104521000D01*
X107101000Y-103555266D01*
X107019000Y-103494567D01*
X107019000Y-103247000D01*
X106369750Y-103247000D01*
X106211000Y-103405750D01*
X106211358Y-103408843D01*
X106195598Y-103404062D01*
X105978000Y-103382630D01*
X105760403Y-103404062D01*
X105551167Y-103467532D01*
X105358335Y-103570604D01*
X105189315Y-103709314D01*
X105050604Y-103878334D01*
X104947532Y-104071166D01*
X104884062Y-104280402D01*
X104868000Y-104443479D01*
X104342000Y-104443479D01*
X104342000Y-102389750D01*
X106169000Y-102389750D01*
X106181594Y-102498524D01*
X106220968Y-102617249D01*
X106246963Y-102663012D01*
X106223594Y-102733476D01*
X106211000Y-102842250D01*
X106369750Y-103001000D01*
X107019000Y-103001000D01*
X107019000Y-102397750D01*
X106977000Y-102355750D01*
X106977000Y-102231000D01*
X106327750Y-102231000D01*
X106169000Y-102389750D01*
X104342000Y-102389750D01*
X104342000Y-101826250D01*
X106169000Y-101826250D01*
X106327750Y-101985000D01*
X106977000Y-101985000D01*
X106977000Y-101381750D01*
X107231000Y-101381750D01*
X107231000Y-101985000D01*
X107251000Y-101985000D01*
X107251000Y-102231000D01*
X107231000Y-102231000D01*
X107231000Y-102834250D01*
X107273000Y-102876250D01*
X107273000Y-103001000D01*
X107293000Y-103001000D01*
X107293000Y-103247000D01*
X107273000Y-103247000D01*
X107273000Y-103850250D01*
X107355000Y-103932250D01*
X107355000Y-104521000D01*
X107368000Y-104521000D01*
X107368000Y-104775000D01*
X107355000Y-104775000D01*
X107355000Y-105740734D01*
X107525938Y-105867268D01*
X107714150Y-105797603D01*
X107846934Y-105716040D01*
X107858334Y-105725396D01*
X108051166Y-105828468D01*
X108260402Y-105891938D01*
X108478000Y-105913370D01*
X108695597Y-105891938D01*
X108904833Y-105828468D01*
X108924991Y-105817694D01*
X109008820Y-105862502D01*
X109128518Y-105898812D01*
X109253000Y-105911072D01*
X110203000Y-105911072D01*
X110327482Y-105898812D01*
X110447180Y-105862502D01*
X110557494Y-105803537D01*
X110654185Y-105724185D01*
X110733537Y-105627494D01*
X110792502Y-105517180D01*
X110828812Y-105397482D01*
X110841072Y-105273000D01*
X110841072Y-104949131D01*
X113452770Y-104949131D01*
X113503414Y-105161066D01*
X113594431Y-105359049D01*
X113722324Y-105535471D01*
X113882178Y-105683553D01*
X114067850Y-105797603D01*
X114256062Y-105867268D01*
X114427000Y-105740734D01*
X114427000Y-104775000D01*
X113601436Y-104775000D01*
X113452770Y-104949131D01*
X110841072Y-104949131D01*
X110841072Y-104346869D01*
X113452770Y-104346869D01*
X113601436Y-104521000D01*
X114427000Y-104521000D01*
X114427000Y-103555266D01*
X114681000Y-103555266D01*
X114681000Y-104521000D01*
X114694000Y-104521000D01*
X114694000Y-104775000D01*
X114681000Y-104775000D01*
X114681000Y-105740734D01*
X114851938Y-105867268D01*
X115040150Y-105797603D01*
X115172934Y-105716040D01*
X115184334Y-105725396D01*
X115377166Y-105828468D01*
X115586402Y-105891938D01*
X115804000Y-105913370D01*
X116021597Y-105891938D01*
X116230833Y-105828468D01*
X116423666Y-105725396D01*
X116429000Y-105721019D01*
X116434334Y-105725396D01*
X116627166Y-105828468D01*
X116836402Y-105891938D01*
X117054000Y-105913370D01*
X117271597Y-105891938D01*
X117480833Y-105828468D01*
X117500991Y-105817694D01*
X117584820Y-105862502D01*
X117704518Y-105898812D01*
X117829000Y-105911072D01*
X118779000Y-105911072D01*
X118903482Y-105898812D01*
X119023180Y-105862502D01*
X119133494Y-105803537D01*
X119230185Y-105724185D01*
X119309537Y-105627494D01*
X119368502Y-105517180D01*
X119404812Y-105397482D01*
X119417072Y-105273000D01*
X119417072Y-104023000D01*
X119404812Y-103898518D01*
X119368502Y-103778820D01*
X119309537Y-103668506D01*
X119230185Y-103571815D01*
X119133494Y-103492463D01*
X119023180Y-103433498D01*
X118903482Y-103397188D01*
X118811564Y-103388135D01*
X118831640Y-103287209D01*
X118831640Y-103103031D01*
X118795708Y-102922391D01*
X118725226Y-102752231D01*
X118622902Y-102599092D01*
X118492668Y-102468858D01*
X118339529Y-102366534D01*
X118169369Y-102296052D01*
X117988729Y-102260120D01*
X117804551Y-102260120D01*
X117623911Y-102296052D01*
X117453751Y-102366534D01*
X117300612Y-102468858D01*
X117170378Y-102599092D01*
X117068054Y-102752231D01*
X116997572Y-102922391D01*
X116961640Y-103103031D01*
X116961640Y-103124333D01*
X116608421Y-103477552D01*
X116434335Y-103570604D01*
X116429000Y-103574982D01*
X116423666Y-103570604D01*
X116230834Y-103467532D01*
X116021598Y-103404062D01*
X115804000Y-103382630D01*
X115586403Y-103404062D01*
X115377167Y-103467532D01*
X115184335Y-103570604D01*
X115172934Y-103579960D01*
X115040150Y-103498397D01*
X114851938Y-103428732D01*
X114681000Y-103555266D01*
X114427000Y-103555266D01*
X114256062Y-103428732D01*
X114067850Y-103498397D01*
X113882178Y-103612447D01*
X113722324Y-103760529D01*
X113594431Y-103936951D01*
X113503414Y-104134934D01*
X113452770Y-104346869D01*
X110841072Y-104346869D01*
X110841072Y-104023000D01*
X110828812Y-103898518D01*
X110792502Y-103778820D01*
X110733537Y-103668506D01*
X110654185Y-103571815D01*
X110557494Y-103492463D01*
X110447180Y-103433498D01*
X110327482Y-103397188D01*
X110203000Y-103384928D01*
X109253000Y-103384928D01*
X109182310Y-103391890D01*
X109184072Y-103374000D01*
X109184072Y-103126256D01*
X109223820Y-103147502D01*
X109343518Y-103183812D01*
X109468000Y-103196072D01*
X110668000Y-103196072D01*
X110792482Y-103183812D01*
X110912180Y-103147502D01*
X111022494Y-103088537D01*
X111119185Y-103009185D01*
X111168000Y-102949704D01*
X111216815Y-103009185D01*
X111313506Y-103088537D01*
X111378588Y-103123324D01*
X111353320Y-103250351D01*
X111353320Y-103434529D01*
X111389252Y-103615169D01*
X111459734Y-103785329D01*
X111562058Y-103938468D01*
X111692292Y-104068702D01*
X111845431Y-104171026D01*
X112015591Y-104241508D01*
X112196231Y-104277440D01*
X112380409Y-104277440D01*
X112561049Y-104241508D01*
X112731209Y-104171026D01*
X112884348Y-104068702D01*
X113014582Y-103938468D01*
X113116906Y-103785329D01*
X113187388Y-103615169D01*
X113223320Y-103434529D01*
X113223320Y-103250351D01*
X113194147Y-103103689D01*
X113222494Y-103088537D01*
X113319185Y-103009185D01*
X113398537Y-102912494D01*
X113457502Y-102802180D01*
X113493812Y-102682482D01*
X113506072Y-102558000D01*
X113506072Y-101658000D01*
X113493812Y-101533518D01*
X113457502Y-101413820D01*
X113398537Y-101303506D01*
X113319185Y-101206815D01*
X113222494Y-101127463D01*
X113112180Y-101068498D01*
X113030000Y-101043569D01*
X113030000Y-99564356D01*
X113039609Y-99549975D01*
X113777512Y-98812072D01*
X113788000Y-98812072D01*
X113912482Y-98799812D01*
X114032180Y-98763502D01*
X114142494Y-98704537D01*
X114239185Y-98625185D01*
X114318537Y-98528494D01*
X114376918Y-98419271D01*
X116026920Y-98419271D01*
X116026920Y-98603449D01*
X116062852Y-98784089D01*
X116133334Y-98954249D01*
X116235658Y-99107388D01*
X116250720Y-99122450D01*
X116250721Y-100602779D01*
X116189214Y-100694831D01*
X116118732Y-100864991D01*
X116082800Y-101045631D01*
X116082800Y-101229809D01*
X116118732Y-101410449D01*
X116189214Y-101580609D01*
X116291538Y-101733748D01*
X116421772Y-101863982D01*
X116574911Y-101966306D01*
X116745071Y-102036788D01*
X116925711Y-102072720D01*
X117109889Y-102072720D01*
X117290529Y-102036788D01*
X117460689Y-101966306D01*
X117613828Y-101863982D01*
X117744062Y-101733748D01*
X117846386Y-101580609D01*
X117916868Y-101410449D01*
X117952800Y-101229809D01*
X117952800Y-101045631D01*
X117916868Y-100864991D01*
X117846386Y-100694831D01*
X117744062Y-100541692D01*
X117673120Y-100470750D01*
X117673120Y-99122450D01*
X117688182Y-99107388D01*
X117790506Y-98954249D01*
X117860988Y-98784089D01*
X117862442Y-98776782D01*
X117935258Y-98833473D01*
X118047051Y-98889582D01*
X118167643Y-98922804D01*
X118290250Y-98929000D01*
X118449000Y-98770250D01*
X118449000Y-98167000D01*
X118429000Y-98167000D01*
X118429000Y-97921000D01*
X118449000Y-97921000D01*
X118449000Y-97317750D01*
X118703000Y-97317750D01*
X118703000Y-97921000D01*
X118723000Y-97921000D01*
X118723000Y-98167000D01*
X118703000Y-98167000D01*
X118703000Y-98770250D01*
X118861750Y-98929000D01*
X118984357Y-98922804D01*
X119104949Y-98889582D01*
X119124674Y-98879682D01*
X119131820Y-98883502D01*
X119251518Y-98919812D01*
X119376000Y-98932072D01*
X119486442Y-98932072D01*
X119710201Y-99155831D01*
X119710201Y-99279457D01*
X119643614Y-99379111D01*
X119573132Y-99549271D01*
X119537200Y-99729911D01*
X119537200Y-99914089D01*
X119573132Y-100094729D01*
X119643614Y-100264889D01*
X119745938Y-100418028D01*
X119876172Y-100548262D01*
X120029311Y-100650586D01*
X120199471Y-100721068D01*
X120380111Y-100757000D01*
X120564289Y-100757000D01*
X120744929Y-100721068D01*
X120915089Y-100650586D01*
X121068228Y-100548262D01*
X121198462Y-100418028D01*
X121300786Y-100264889D01*
X121371268Y-100094729D01*
X121407200Y-99914089D01*
X121407200Y-99729911D01*
X121371268Y-99549271D01*
X121300786Y-99379111D01*
X121234200Y-99279458D01*
X121234200Y-98877623D01*
X121237886Y-98840200D01*
X121233908Y-98799812D01*
X121223174Y-98690822D01*
X121179602Y-98547185D01*
X121141780Y-98476425D01*
X121108845Y-98414807D01*
X121037479Y-98327848D01*
X121013622Y-98298778D01*
X120984551Y-98274920D01*
X120614072Y-97904441D01*
X120614072Y-97794000D01*
X120601812Y-97669518D01*
X120565502Y-97549820D01*
X120506537Y-97439506D01*
X120427185Y-97342815D01*
X120330494Y-97263463D01*
X120220180Y-97204498D01*
X120100482Y-97168188D01*
X119976000Y-97155928D01*
X119376000Y-97155928D01*
X119251518Y-97168188D01*
X119131820Y-97204498D01*
X119124674Y-97208318D01*
X119104949Y-97198418D01*
X118984357Y-97165196D01*
X118861750Y-97159000D01*
X118703000Y-97317750D01*
X118449000Y-97317750D01*
X118290250Y-97159000D01*
X118167643Y-97165196D01*
X118047051Y-97198418D01*
X117935258Y-97254527D01*
X117836559Y-97331369D01*
X117754748Y-97425988D01*
X117692968Y-97534751D01*
X117653594Y-97653476D01*
X117641000Y-97762250D01*
X117795748Y-97916998D01*
X117689295Y-97916998D01*
X117688182Y-97915332D01*
X117557948Y-97785098D01*
X117404809Y-97682774D01*
X117234649Y-97612292D01*
X117054009Y-97576360D01*
X116869831Y-97576360D01*
X116689191Y-97612292D01*
X116519031Y-97682774D01*
X116365892Y-97785098D01*
X116235658Y-97915332D01*
X116133334Y-98068471D01*
X116062852Y-98238631D01*
X116026920Y-98419271D01*
X114376918Y-98419271D01*
X114377502Y-98418180D01*
X114413812Y-98298482D01*
X114426072Y-98174000D01*
X114426072Y-97574000D01*
X114413812Y-97449518D01*
X114377502Y-97329820D01*
X114373682Y-97322674D01*
X114383582Y-97302949D01*
X114416804Y-97182357D01*
X114423000Y-97059750D01*
X114264250Y-96901000D01*
X113661000Y-96901000D01*
X113661000Y-96921000D01*
X113415000Y-96921000D01*
X113415000Y-96901000D01*
X112811750Y-96901000D01*
X112653000Y-97059750D01*
X112659196Y-97182357D01*
X112692418Y-97302949D01*
X112702318Y-97322674D01*
X112698498Y-97329820D01*
X112662188Y-97449518D01*
X112649928Y-97574000D01*
X112649928Y-97784396D01*
X112385518Y-98048806D01*
X112385489Y-98048800D01*
X112201311Y-98048800D01*
X112020671Y-98084732D01*
X111850511Y-98155214D01*
X111697372Y-98257538D01*
X111567138Y-98387772D01*
X111464814Y-98540911D01*
X111394332Y-98711071D01*
X111358400Y-98891711D01*
X111358400Y-99075889D01*
X111394332Y-99256529D01*
X111464814Y-99426689D01*
X111506001Y-99488330D01*
X111506000Y-101043569D01*
X111423820Y-101068498D01*
X111313506Y-101127463D01*
X111216815Y-101206815D01*
X111168000Y-101266296D01*
X111119185Y-101206815D01*
X111022494Y-101127463D01*
X110912180Y-101068498D01*
X110792482Y-101032188D01*
X110668000Y-101019928D01*
X109468000Y-101019928D01*
X109343518Y-101032188D01*
X109223820Y-101068498D01*
X109113506Y-101127463D01*
X109016815Y-101206815D01*
X108937463Y-101303506D01*
X108904483Y-101365205D01*
X108858494Y-101327463D01*
X108748180Y-101268498D01*
X108628482Y-101232188D01*
X108504000Y-101219928D01*
X107904000Y-101219928D01*
X107779518Y-101232188D01*
X107659820Y-101268498D01*
X107652674Y-101272318D01*
X107632949Y-101262418D01*
X107512357Y-101229196D01*
X107389750Y-101223000D01*
X107231000Y-101381750D01*
X106977000Y-101381750D01*
X106818250Y-101223000D01*
X106695643Y-101229196D01*
X106575051Y-101262418D01*
X106463258Y-101318527D01*
X106364559Y-101395369D01*
X106282748Y-101489988D01*
X106220968Y-101598751D01*
X106181594Y-101717476D01*
X106169000Y-101826250D01*
X104342000Y-101826250D01*
X104342000Y-96450150D01*
X106049000Y-96450150D01*
X106055196Y-96572757D01*
X106088418Y-96693349D01*
X106144527Y-96805142D01*
X106221369Y-96903841D01*
X106315988Y-96985652D01*
X106424751Y-97047432D01*
X106543476Y-97086806D01*
X106652250Y-97099400D01*
X106811000Y-96940650D01*
X106811000Y-96291400D01*
X106207750Y-96291400D01*
X106049000Y-96450150D01*
X104342000Y-96450150D01*
X104342000Y-90118000D01*
X106945448Y-90118000D01*
X106447049Y-90616399D01*
M02*
